<svg width="512" height="136" viewBox="0 0 512 136" fill="none" xmlns="http://www.w3.org/2000/svg">
<g clip-path="url(#clip0_258_3835)">
<path d="M469.517 106.916L468.772 107.074L468.026 107.297L467.3 107.586L466.619 107.893L465.938 108.284L465.305 108.696L464.691 109.151L464.14 109.672L463.61 110.209L463.149 110.791L462.753 111.414L462.417 112.06L462.148 112.741L461.96 113.429L461.841 114.154L461.83 114.902L461.905 115.668L462.062 116.433L462.329 117.243L462.506 117.643L462.7 118.027L462.92 118.408L463.163 118.789L463.419 119.146L463.685 119.487L463.965 119.827L464.266 120.16L464.551 120.5L464.853 120.837L465.157 121.154L465.459 121.489L465.763 121.803L466.07 122.144L466.372 122.484L466.651 122.817L466.918 123.18L467.173 123.537L467.44 123.894L467.658 124.28L467.919 124.809L468.115 125.338L468.231 125.869L468.299 126.379L468.306 126.895L468.25 127.383L468.148 127.852L467.984 128.325L467.774 128.776L467.523 129.184L467.23 129.57L466.871 129.938L466.513 130.263L466.087 130.565L465.641 130.829L465.171 131.048L464.662 131.224L464.15 131.36L463.596 131.428L463.036 131.479L462.482 131.443L461.946 131.387L461.452 131.261L460.959 131.118L460.507 130.931L460.08 130.703L459.669 130.477L459.259 130.225L458.891 129.953L458.522 129.677L458.178 129.403L457.833 129.13L457.507 128.859L457.209 128.604L456.883 128.376L456.603 128.169L456.3 128L456.022 127.852L455.742 127.75L455.462 127.689L454.884 127.718L454.44 128L454.143 128.432L453.915 128.859L453.753 129.267L453.65 129.65L453.608 130.016L453.613 130.378L453.681 130.718L453.794 131.057L453.947 131.373L454.143 131.669L454.382 131.945L454.641 132.217L454.945 132.493L455.266 132.743L455.616 132.976L455.979 133.207L456.371 133.416L456.757 133.62L457.163 133.83L457.572 134.02L458.197 134.29L458.84 134.512L459.483 134.723L460.131 134.903L460.797 135.066L461.435 135.185L462.1 135.284L462.765 135.343L463.405 135.354L464.07 135.348L464.708 135.297L465.37 135.206L466.013 135.088L466.633 134.908L467.271 134.712L467.885 134.471L468.482 134.165L469.079 133.835L469.652 133.467L470.22 133.032L470.817 132.515L471.343 131.972L471.827 131.414L472.228 130.81L472.581 130.211L472.894 129.589L473.122 128.943L473.31 128.303L473.429 127.643L473.504 126.98L473.518 126.296L473.467 125.636L473.375 124.954L473.216 124.294L473.015 123.615L472.75 122.957L472.443 122.302L472.075 121.664L471.66 121.028L471.179 120.415L470.942 120.164L470.703 119.892L470.444 119.616L470.183 119.344L469.898 119.068L469.62 118.771L469.34 118.478L469.079 118.18L468.794 117.866L468.533 117.573L468.296 117.252L468.057 116.918L467.863 116.597L467.663 116.256L467.509 115.899L467.378 115.557L467.286 115.176L467.22 114.814L467.192 114.433L467.206 114.047L467.271 113.685L467.373 113.341L467.518 112.997L467.685 112.7L467.895 112.417L468.105 112.162L468.361 111.924L468.635 111.725L468.929 111.529L469.251 111.358L469.569 111.222L469.913 111.111L470.253 111.023L470.616 110.954L470.957 110.912L471.319 110.883L471.682 110.902L472.027 110.939L472.368 111L472.713 111.079L473.272 111.288L473.789 111.557L474.306 111.892L474.78 112.249L475.232 112.649L475.69 113.025L476.142 113.424L476.336 113.596L476.551 113.698L476.747 113.783L476.961 113.843L477.152 113.86H477.367L477.558 113.816L477.749 113.749L477.94 113.681L478.11 113.574L478.281 113.443L478.452 113.29L478.597 113.142L478.745 112.97L478.871 112.798L478.997 112.603L479.1 112.388L479.206 112.194L479.351 111.701L479.342 111.232L479.253 110.767L479.033 110.34L478.726 109.917L478.341 109.519L477.865 109.141L477.324 108.808L476.742 108.473L476.142 108.18L475.499 107.888L474.833 107.666L474.142 107.437L473.477 107.251L472.834 107.088L472.233 106.969L471.655 106.87L471.119 106.814L470.648 106.797L470.261 106.824L469.517 106.916ZM438.583 120.689L439.044 119.852L439.568 118.975L440.154 118.111L440.787 117.252L441.504 116.411L442.246 115.612L443.048 114.817L443.896 114.079L444.784 113.406L445.694 112.78L446.629 112.212L447.608 111.728L448.585 111.315L449.565 111.023L450.571 110.801L451.572 110.703L452.579 110.737L453.585 110.893L454.572 111.159L455.088 111.363L455.518 111.613L455.911 111.865L456.231 112.137L456.533 112.436L456.794 112.729L457.033 113.043L457.293 113.383L457.554 113.722L457.82 114.079L458.117 114.419L458.466 114.777L458.835 115.091L459.198 115.153L459.753 114.994L460.094 114.824L460.409 114.521L460.703 114.113L460.977 113.679L461.187 113.229L461.327 112.78L461.412 112.417L461.406 112.12L461.36 111.798L461.271 111.502L461.141 111.228L460.988 110.931L460.81 110.657L460.595 110.378L460.356 110.126L460.097 109.871L459.836 109.643L459.534 109.412L459.254 109.179L458.951 108.969L458.63 108.784L458.326 108.593L458.024 108.408L457.721 108.26L457.441 108.116L457.185 107.99L456.924 107.864L455.658 107.391L454.372 107.066L453.067 106.865L451.758 106.797L450.435 106.881L449.112 107.066L447.807 107.359L446.531 107.758L445.255 108.263L444.02 108.854L442.809 109.527L441.645 110.271L440.54 111.092L439.482 111.98L438.486 112.909L437.56 113.902L436.693 114.935L435.92 115.989L435.226 117.085L434.639 118.199L434.284 118.953L433.972 119.723L433.665 120.517L433.394 121.354L433.148 122.184L432.943 123.045L432.785 123.899L432.667 124.753L432.594 125.603L432.58 126.459L432.635 127.313L432.728 128.145L432.909 128.971L433.134 129.756L433.464 130.523L433.861 131.261L434.317 131.964L434.88 132.635L435.528 133.248L436.287 133.811L436.847 134.168L437.471 134.503L438.179 134.792L438.933 135.085L439.726 135.348L440.583 135.553L441.444 135.735L442.343 135.874L443.22 135.966L444.119 136L444.975 135.966L445.828 135.893L446.639 135.735L447.406 135.512L448.106 135.206L448.768 134.814L449.317 134.336L449.802 133.778L450.179 133.11L450.445 132.339L450.53 131.894L450.523 131.639L450.353 131.489L450.029 131.411L449.667 131.349L449.298 131.332L448.935 131.336L448.553 131.382L448.171 131.428L447.785 131.497L447.403 131.586L447.016 131.679L446.634 131.768L446.248 131.856L445.842 131.948L445.46 132.018L445.078 132.084L444.691 132.135L444.305 132.157L443.923 132.163L443.536 132.149L442.701 132.009L441.929 131.827L441.221 131.559L440.572 131.242L439.992 130.89L439.474 130.49L438.999 130.026L438.607 129.519L438.257 128.99L437.974 128.419L437.751 127.801L437.573 127.189L437.457 126.529L437.406 125.845L437.42 125.144L437.476 124.438L437.573 123.732L437.737 123.008L437.942 122.276L438.211 121.548L438.583 120.689ZM415.906 124.304L415.696 124.581L415.44 124.734L415.184 124.763L414.904 124.678L414.643 124.53L414.43 124.299L414.258 124.025L406.361 108.041L406.225 107.809L406.095 107.619L405.946 107.45L405.774 107.345L405.602 107.26L405.43 107.2L405.257 107.183H405.085L404.918 107.228L404.727 107.275L404.554 107.359L404.385 107.469L404.215 107.576L404.07 107.729L403.92 107.879L403.771 108.049L403.645 108.226L403.519 108.417L390.941 131.03L390.545 131.8L390.173 132.659L389.945 133.467L389.931 133.853L389.977 134.108L390.125 134.256L390.429 134.382L390.876 134.462L391.132 134.479L391.393 134.517L391.691 134.535L391.99 134.532L392.292 134.549L392.609 134.527L392.93 134.498L393.252 134.452L393.551 134.364L393.848 134.275L394.122 134.165L394.378 134.034L394.593 133.864L394.803 133.644L394.952 133.43L403.823 117.582L404.055 117.326L404.377 117.257L404.698 117.342L404.937 117.592L412.961 133.593L413.069 133.784L413.2 133.979L413.33 134.146L413.461 134.313L413.615 134.438L413.785 134.546L413.935 134.648L414.108 134.712L414.28 134.774L414.452 134.791H414.621L414.792 134.768L414.961 134.723L415.133 134.656L415.305 134.546L415.45 134.42L415.599 134.267L415.747 134.071L415.873 133.858L429.956 108.435L430.123 108.116L430.185 107.86L430.12 107.67L429.9 107.456L429.533 107.228L429.299 107.103L429.061 106.996L428.801 106.916L428.521 106.857L428.247 106.814L427.967 106.797L427.687 106.801L427.414 106.83L427.111 106.87L426.836 106.916L426.56 107.005L426.304 107.093L426.024 107.205L425.792 107.335L425.536 107.488L425.326 107.641L425.116 107.837L424.944 108.008L424.777 108.223L424.627 108.435L415.906 124.304ZM419.279 132.53L419.13 132.826L419.052 133.129L419.033 133.408L419.074 133.639L419.21 133.872L419.381 134.063L419.642 134.205L419.964 134.307L420.196 134.35L420.435 134.393L420.667 134.43L420.928 134.447L421.184 134.444L421.459 134.461L421.715 134.438L421.994 134.415L422.25 134.369L422.506 134.323L422.762 134.234L422.996 134.146L423.23 134.039L423.444 133.909L423.636 133.756L423.827 133.603L423.97 133.408L424.12 133.193L437.7 108.827L437.867 108.394L437.839 107.971L437.686 107.546L437.406 107.251L437.145 107.103L436.889 106.978L436.609 106.898L436.33 106.838L436.031 106.796L435.751 106.801L435.453 106.806L435.151 106.852L434.852 106.916L434.579 107.005L434.279 107.117L433.999 107.228L433.749 107.381L433.493 107.53L433.259 107.726L433.027 107.901L432.817 108.116L432.626 108.333L432.459 108.548L432.309 108.786L419.279 132.53ZM318.934 131.503L319.019 131.159L318.842 130.778L318.516 130.506L318.153 130.467L314.212 131.559L313.55 131.695L312.907 131.768L312.269 131.776L311.649 131.717L311.025 131.596L310.423 131.414L309.841 131.186L309.282 130.917L308.765 130.577L308.266 130.203L307.814 129.803L307.422 129.339L307.055 128.851L306.748 128.322L306.506 127.772L306.305 127.177L306.194 126.561L306.124 125.942L306.132 125.284L306.235 124.62L306.412 123.765L306.659 122.928L306.953 122.093L307.303 121.28L307.68 120.463L308.099 119.691L308.56 118.92L309.063 118.167L309.609 117.434L310.181 116.746L310.791 116.054L311.424 115.426L312.078 114.823L312.777 114.237L313.499 113.717L314.244 113.22L315.007 112.761L315.795 112.348L316.581 111.994L317.388 111.688L317.924 111.511L318.454 111.375L319.009 111.242L319.539 111.148L320.075 111.08L320.611 111.029L321.143 111.023L321.66 111.06L322.172 111.116L322.667 111.218L323.161 111.339L323.63 111.506L324.106 111.734L324.533 111.985L324.944 112.278L325.336 112.635L325.703 113.016L326.053 113.458L326.355 113.969L326.64 114.498L326.943 114.855L327.418 115.023L327.929 114.994L328.335 114.712L328.965 113.913L329.426 113.161L329.716 112.436L329.835 111.771L329.832 111.13L329.673 110.534L329.407 110.007L329.038 109.5L328.586 109.036L328.023 108.612L327.399 108.236L326.734 107.906L326 107.617L325.248 107.367L324.478 107.163L323.687 107.023L322.912 106.908L322.144 106.833L321.413 106.796L320.729 106.806L319.746 106.903L318.762 107.023L317.803 107.205L316.89 107.45L315.972 107.716L315.077 108.046L314.207 108.4L313.354 108.816L312.525 109.272L311.719 109.75L310.931 110.294L310.172 110.861L309.432 111.441L308.708 112.074L308.033 112.742L307.359 113.429L306.724 114.14L306.091 114.897L305.505 115.649L304.936 116.444L304.452 117.155L303.991 117.906L303.553 118.701L303.133 119.495L302.737 120.332L302.406 121.167L302.076 122.026L301.806 122.901L301.601 123.778L301.443 124.675L301.325 125.552L301.292 126.425L301.327 127.299L301.424 128.177L301.6 129.004L301.871 129.854L302.221 130.662L302.657 131.443L303.203 132.205L303.855 132.925L304.242 133.3L304.657 133.617L305.109 133.932L305.559 134.202L306.035 134.43L306.506 134.637L307.001 134.825L307.516 134.967L308.028 135.088L308.565 135.209L309.101 135.289L309.636 135.343L310.172 135.381L310.708 135.418L311.262 135.432L311.798 135.428L312.333 135.423L312.864 135.389L313.376 135.343L313.894 135.292L314.236 135.27L314.597 135.241L314.985 135.195L315.389 135.127L315.795 135.059L316.177 134.945L316.535 134.792L316.856 134.597L317.132 134.382L317.364 134.081L318.934 131.503ZM335.113 106.945L334.578 106.95L334.173 106.996L333.875 107.064L333.641 107.173L333.45 107.348L333.301 107.581L333.138 107.906L332.281 109.815L332.094 110.266L332.034 110.563L332.099 110.735L332.338 110.837L332.723 110.875L336.19 111.113L336.707 111.191L336.945 111.376L337.032 111.827L336.978 112.528L336.753 113.215L326.78 130.332L326.281 131.363L325.824 132.431L325.637 133.054L325.662 133.416L325.945 133.649L326.546 133.811L326.78 133.853L327.041 133.891L327.273 133.932L327.528 133.928L327.808 133.945L328.064 133.942L328.32 133.918L328.578 133.894L328.834 133.848L329.072 133.802L329.323 133.714L329.562 133.625L329.77 133.515L329.985 133.384L330.176 133.236L330.367 133.059L330.511 132.868L330.661 132.63L341.78 113.453L342.391 112.611L343.066 111.836L343.489 111.47L344.001 111.293L344.45 111.223L344.897 111.194L345.325 111.167L345.753 111.162L346.178 111.159L346.588 111.153L346.994 111.148L347.398 111.121L347.785 111.097L348.143 111.051L348.507 110.958L348.851 110.869L349.169 110.716L349.486 110.521L349.783 110.284L350.057 110.002L350.31 109.658L350.542 109.25L350.747 108.779L350.934 108.223L350.994 107.796L350.905 107.456L350.668 107.243L350.194 107.056L349.204 106.857L348.116 106.806L347.086 106.796L335.113 106.945ZM294.733 106.921L294.453 106.95L294.197 106.972L293.988 107.061L293.797 107.168L293.583 107.364L293.392 107.622L293.164 107.968L292.889 108.393L292.577 108.934L279.366 132.273L279.202 132.618L279.137 132.874L279.183 133.086L279.379 133.319L279.724 133.593L280.026 133.78L280.348 133.904L291.301 133.768L291.557 133.765L291.812 133.7L292.065 133.612L292.321 133.505L292.577 133.369L292.809 133.198L293.024 133.027L293.234 132.831L293.443 132.613L293.611 132.375L293.783 132.139L293.904 131.907L294.03 131.669L294.116 131.411L294.175 131.178L294.211 130.662L294.1 130.346L293.797 130.155L293.302 130.077L287.508 129.849L287.205 129.747L286.991 129.495L286.855 129.133L286.809 128.771L286.846 128.41L286.949 128.107L289.675 123.319L289.987 122.761L290.26 122.418L290.516 122.2L290.792 122.111L291.156 122.088L298.684 121.994L298.983 121.929L299.298 121.752L299.597 121.492L299.89 121.169L300.165 120.805L300.417 120.414L300.627 120.053L300.77 119.71L300.873 119.431L300.958 119.026L300.929 118.771L300.716 118.558L300.329 118.349L299.919 118.204L299.489 118.126L298.995 118.046L298.483 118.009L297.93 117.995L297.37 118L296.792 118.009L296.216 118.014L295.683 118.024L295.148 118.009L294.631 117.949L294.184 117.888L293.774 117.791L293.583 117.619L293.554 117.303L293.657 116.787L293.718 116.549L293.82 116.294L293.923 115.998L294.071 115.673L294.24 115.329L294.426 114.967L294.614 114.581L294.822 114.195L295.056 113.805L295.306 113.419L295.535 113.053L295.81 112.691L296.062 112.366L296.335 112.045L296.587 111.762L296.862 111.524L297.118 111.33L297.374 111.177L297.63 111.089L297.864 111.065L304.708 110.98L305.006 110.934L305.262 110.866L305.542 110.735L305.769 110.587L306.008 110.391L306.218 110.174L306.426 109.936L306.595 109.68L306.762 109.42L306.907 109.141L307.031 108.864L307.158 108.604L307.243 108.33L307.321 108.092L307.405 107.683L307.292 107.433L306.972 107.178L306.371 106.95L305.663 106.833L304.998 106.796L294.733 106.921ZM263.838 132.084L263.693 132.385L263.652 132.683L263.674 132.955L263.763 133.212L263.9 133.426L264.113 133.617L264.352 133.741L264.63 133.843L264.952 133.862L274.874 133.909L275.196 133.886L275.493 133.797L275.792 133.644L276.066 133.467L276.322 133.255L276.551 132.994L276.766 132.734L276.954 132.455L277.143 132.176L277.288 131.897L277.412 131.618L277.576 131.04L277.506 130.635L277.204 130.235L276.882 130.091L272.088 129.825L271.767 129.771L271.529 129.599L271.399 129.366L271.331 129.092L271.348 128.771L271.407 128.451L271.488 128.131L271.614 127.828L271.738 127.573L282.505 109.082L282.653 108.757L282.774 108.417L282.836 108.051L282.808 107.689L282.677 107.415L282.397 107.182L282.141 107.08L281.88 106.995L281.601 106.916L281.321 106.875L281.048 106.838L280.744 106.796L280.446 106.801L280.147 106.806L279.845 106.83L279.57 106.875L279.272 106.944L278.992 107.034L278.717 107.122L278.462 107.251L278.206 107.381L277.972 107.534L277.762 107.729L277.571 107.925L277.38 108.139L277.237 108.376L263.838 132.084ZM261.537 106.94L261.262 106.964L261.023 107.01L260.815 107.098L260.624 107.246L260.409 107.488L260.181 107.831L259.908 108.282L259.594 108.84L246.49 132.157L246.345 132.436L246.262 132.697L246.245 132.93L246.248 133.142L246.294 133.338L246.401 133.505L246.509 133.649L246.68 133.778L246.854 133.881L247.072 133.966L247.306 134.001L247.562 134.044L247.841 134.061L259.473 133.918L259.817 133.872L260.116 133.765L260.39 133.588L260.643 133.375L260.875 133.115L261.085 132.836L261.252 132.533L261.421 132.214L261.547 131.911L261.649 131.634L261.709 131.336L261.704 131.033L261.615 130.783L261.486 130.545L261.289 130.337L261.052 130.211L260.772 130.109L260.452 130.091L254.977 130.155L254.53 130.123L254.251 129.997L254.032 129.72L253.967 129.594L253.814 129.278L253.874 128.91L254.143 128.335L256.236 124.489L256.404 124.168L256.632 123.802L256.905 123.397L257.222 122.984L257.54 122.622L257.898 122.321L258.256 122.101L258.643 122.033L266.172 121.94L266.513 121.892L266.853 121.739L267.151 121.521L267.444 121.266L267.7 120.939L267.929 120.62L268.12 120.271L268.287 119.951L268.39 119.63L268.468 119.31L268.446 118.97L268.357 118.65L268.156 118.395L267.859 118.228L267.496 118.148L261.672 118.005L261.351 117.968L261.117 117.842L260.947 117.694L260.815 117.485L260.745 117.246L260.721 116.991L260.74 116.741L260.801 116.457L260.904 116.202L261.028 115.964L263.229 112.142L263.48 111.717L263.712 111.414L263.946 111.218L264.22 111.108L264.561 111.041L265.012 111.033L272.904 110.939L273.221 110.805L273.579 110.504L273.961 110.053L274.338 109.555L274.656 109.039L274.884 108.588L275.009 108.269L275.046 107.949L274.981 107.67L274.845 107.418L274.632 107.228L274.393 107.061L274.091 106.935L273.794 106.852L273.472 106.814L273.17 106.797L261.537 106.94ZM234.163 106.983L233.866 107.005L233.568 107.117L233.293 107.27L233.037 107.466L232.803 107.702L232.593 107.962L232.384 108.26L232.216 108.561L232.071 108.864L231.923 109.16L231.821 109.439L231.735 109.699L231.616 110.187L231.597 110.507L231.665 110.679L231.839 110.781L232.16 110.823L236.12 111.159L236.567 111.261L236.851 111.642L236.894 111.706L237.01 112.064L236.925 112.472L236.572 113.156L225.727 132.27L225.498 132.72L225.481 133.04L225.611 133.357L225.722 133.547L225.937 133.826L226.198 133.945L226.626 133.988L229.021 133.955L229.361 133.932L229.64 133.886L229.872 133.797L230.087 133.627L230.297 133.389L230.507 133.064L230.777 132.589L242.143 112.579L242.485 112.106L242.843 111.715L243.242 111.432L243.672 111.213L244.119 111.084L244.609 110.971L245.096 110.92L245.591 110.893L246.103 110.866L246.615 110.861L247.127 110.832L247.621 110.781L248.111 110.693L248.582 110.582L249.029 110.383L249.43 110.123L249.834 109.774L250.17 109.323L250.482 108.765L250.752 108.102L250.832 107.609L250.767 107.294L250.528 107.144L249.904 107.001L249.559 106.881L249.22 106.796L234.163 106.983ZM127.051 132.491L126.924 132.816L126.887 133.09L126.957 133.369L127.064 133.583L127.259 133.768L127.498 133.916L127.777 134.018L128.074 134.037L130.469 134.005L130.833 133.981L131.107 133.892L131.363 133.722L131.616 133.374L131.909 132.88L137.588 123.215L137.858 122.741L138.114 122.397L138.324 122.183L138.557 122.053L138.813 122.008L139.158 121.979L147.091 121.882L147.799 122.001L148.484 122.207L149.02 122.394L149.214 122.625L149.22 123.052L149.058 123.777L148.768 124.506L148.414 125.153L144.245 132.28L144.1 132.625L144.035 132.969L144.086 133.309L144.24 133.581L144.496 133.79L144.84 133.916L145.096 133.935L145.352 133.977L145.656 133.991L145.954 134.008L146.275 134.029L146.598 134L146.913 133.977L147.217 133.954L147.534 133.884L147.831 133.795L148.111 133.685L148.363 133.554L148.6 133.384L148.788 133.187L148.959 132.974L163.159 108.551L163.284 108.248L163.345 107.993L163.34 107.738L163.275 107.505L163.144 107.292L162.973 107.124L162.751 106.976L162.519 106.874L162.241 106.813L161.961 106.796L159.906 106.823L159.525 106.828L159.246 106.892L159.012 107.003L158.78 107.217L158.57 107.518L158.295 107.951L153.292 116.581L153.017 116.949L152.592 117.362L152.108 117.747L151.596 118.012L151.149 118.124L142.59 118.058L142.102 117.956L141.734 117.663L141.597 117.26L141.637 116.66L141.841 115.935L142.176 115.248L146.197 108.503L146.384 108.01L146.337 107.585L146.052 107.268L145.516 107.04L145.26 106.957L145.004 106.915L144.743 106.879L144.469 106.836L144.213 106.841L143.952 106.823L143.696 106.845L143.44 106.874L143.184 106.92L142.926 106.984L142.693 107.073L142.437 107.161L142.227 107.274L141.99 107.379L141.78 107.532L141.589 107.682L141.398 107.859L141.231 108.049L141.063 108.267L140.913 108.505L127.051 132.491ZM198.111 131.203L197.664 131.678L197.268 132.217L196.951 132.773L196.848 133.159L197.026 133.392L197.538 133.554L197.793 133.615L198.116 133.675L198.479 133.693L198.889 133.731L199.317 133.726L199.766 133.721L200.213 133.712L200.683 133.666L201.11 133.619L201.54 133.551L201.903 133.457L202.244 133.35L202.517 133.214L202.727 133.066L207.34 128.701L207.698 128.398L208.039 128.221L208.466 128.133L209.106 128.106L215.609 128.027L216.013 128.041L216.4 128.119L216.745 128.264L217.025 128.454L217.264 128.752L217.417 129.109L217.463 129.279L217.467 129.494V129.727L217.472 129.987L217.455 130.285L217.412 130.557L217.397 130.88L217.38 131.181L217.361 131.479L217.364 131.799L217.388 132.077L217.415 132.375L217.463 132.63L217.552 132.862L217.658 133.076L217.789 133.243L217.96 133.392L218.175 133.494L218.454 133.535L218.758 133.554L220.807 133.377L221.213 133.331L221.511 133.263L221.703 133.132L221.851 132.918L221.929 132.617L222.01 132.188L225.904 107.854L225.921 107.534L225.875 107.279L225.746 107.064L225.573 106.92L225.358 106.836L225.12 106.794L224.864 106.799L224.608 106.845L224.352 106.933L224.12 107.064L223.886 107.241L198.111 131.203ZM213.424 124.404L213.162 124.069L213.094 123.642L213.284 123.299L217.491 119.174L217.719 118.954L217.975 118.76L218.25 118.611L218.506 118.524L218.744 118.495L218.935 118.602L219.065 118.811L219.092 119.196L219.079 119.706L219.041 120.284L219.005 120.883L218.93 121.501L218.828 122.118L218.688 122.698L218.5 123.208L218.268 123.661L217.91 124.052L217.444 124.358L216.936 124.488L213.792 124.528L213.424 124.404ZM150.794 132.836L150.566 133.198L150.632 133.625L150.897 133.983L151.303 134.085L155.107 134.039L155.556 133.993L155.938 133.816L156.449 133.384L161.165 129.06L161.588 128.735L161.97 128.582L162.57 128.553L169.415 128.47L170.099 128.633L170.704 129.031L170.984 129.473L171.121 129.967L170.771 132.697L170.752 133.016L170.733 133.272L170.756 133.486L170.803 133.658L170.909 133.76L171.041 133.867L171.232 133.928L171.488 133.945L171.832 133.964L172.219 133.96L174.268 133.932L174.678 133.928L174.976 133.862L175.186 133.733L175.336 133.515L175.439 133.175L175.517 132.702L179.524 108.706L179.56 108.451L179.557 108.153V107.874L179.509 107.595L179.42 107.345L179.309 107.131L179.137 106.964L178.922 106.838L178.661 106.796L178.322 106.843L177.963 106.996L177.641 107.214L176.941 107.775L176.268 108.32L150.794 132.836ZM167.067 123.7L167.211 123.528L167.552 123.096L167.91 122.668L168.263 122.235L168.669 121.803L169.07 121.371L169.49 120.939L169.937 120.531L170.38 120.16L170.826 119.793L171.269 119.468L171.716 119.184L172.182 118.924L172.397 118.878L172.567 119.068L172.615 119.366L172.602 119.9L172.564 120.434L172.55 120.944L172.494 121.438L172.457 121.906L172.371 122.356L172.293 122.785L172.173 123.188L172.028 123.555L171.837 123.875L171.627 124.178L171.394 124.438L171.097 124.651L170.78 124.828L170.397 124.959L169.945 125.027L169.475 125.056L168.92 125.022L168.32 124.943L167.658 124.801L167.163 124.656L166.904 124.489L166.858 124.256L166.96 123.872L167.067 123.7ZM383.288 106.852L382.179 106.954L381.087 107.136L379.978 107.386L378.895 107.675L377.827 108.049L376.766 108.468L375.746 108.927L374.726 109.454L373.724 110.021L372.772 110.65L371.86 111.301L370.971 112.016L370.145 112.769L369.34 113.55L368.603 114.39L367.91 115.249L367.276 116.134L366.713 117.08L366.21 118.024L365.609 119.417L365.109 120.786L364.765 122.133L364.546 123.462L364.43 124.739L364.447 125.998L364.589 127.192L364.858 128.34L365.259 129.422L365.744 130.462L366.372 131.414L367.114 132.278L367.956 133.078L368.907 133.792L369.959 134.396L371.143 134.894L372.409 135.308L373.803 135.585L375.28 135.762L376.863 135.809L377.953 135.748L379.067 135.585L380.176 135.34L381.28 135.005L382.389 134.61L383.474 134.103L384.559 133.559L385.622 132.93L386.637 132.256L387.633 131.516L388.588 130.737L389.475 129.895L390.34 129.009L391.142 128.107L391.883 127.155L392.531 126.189L393.14 125.182L393.638 124.173L394.076 123.142L394.407 122.115L394.692 120.941L394.911 119.766L395.069 118.609L395.12 117.456L395.107 116.369L395.004 115.282L394.822 114.261L394.556 113.263L394.221 112.327L393.783 111.443L393.261 110.614L392.633 109.852L391.939 109.16L391.137 108.553L390.257 108.027L389.264 107.59L388.193 107.243L387.015 106.978L385.748 106.841L384.378 106.796L383.286 106.852H383.288ZM381.164 111.143L381.993 110.987L382.803 110.888L383.619 110.861L384.41 110.912L385.178 111.031L385.934 111.237L386.618 111.483L387.283 111.817L387.909 112.212L388.472 112.654L388.989 113.161L389.446 113.73L389.842 114.343L390.149 115.023L390.391 115.748L390.55 116.532L390.625 117.364L390.615 118.236L390.499 119.155L390.335 119.881L390.13 120.611L389.861 121.359L389.571 122.088L389.218 122.799L388.817 123.528L388.402 124.215L387.937 124.903L387.457 125.571L386.925 126.218L386.379 126.843L385.808 127.425L385.197 128.004L384.583 128.548L383.948 129.046L383.288 129.523L382.631 129.956L381.95 130.351L381.27 130.7L380.591 131.006L379.779 131.312L378.931 131.559L378.074 131.717L377.221 131.836L376.365 131.887L375.512 131.878L374.678 131.782L373.881 131.642L373.108 131.414L372.382 131.127L371.692 130.773L371.087 130.356L370.524 129.868L370.048 129.32L369.656 128.687L369.348 127.987L369.144 127.221L369.052 126.371L369.06 125.45L369.197 124.471L369.401 123.593L369.623 122.715L369.913 121.86L370.247 121.024L370.621 120.206L371.017 119.412L371.478 118.641L371.962 117.888L372.489 117.16L373.035 116.467L373.625 115.799L374.26 115.153L374.917 114.549L375.592 113.987L376.314 113.443L377.078 112.965L377.841 112.506L378.648 112.091L379.477 111.72L380.33 111.39L381.164 111.143ZM339.535 131.674L339.223 132.297L338.929 133.027L338.836 133.709L338.882 134.095L339.073 134.304L339.549 134.471L339.788 134.532L340.02 134.568L340.257 134.61L340.513 134.627L340.768 134.648L341.024 134.624L341.28 134.619L341.536 134.573L341.794 134.527L342.027 134.462L342.283 134.393L342.497 134.285L342.73 134.173L342.945 134.044L343.136 133.894L343.304 133.724L343.471 133.528L343.597 133.309L348.372 125.107L348.539 124.852L348.711 124.656L348.88 124.503L349.071 124.396L349.261 124.328L349.452 124.304L349.624 124.326L349.82 124.406L349.97 124.511L350.124 124.661L350.254 124.852L350.361 125.083L350.45 125.357L352.429 133.226L352.671 133.714L353.08 134.132L353.558 134.404L354.027 134.568L354.544 134.67L355.099 134.707L355.658 134.68L356.17 134.61L356.66 134.452L357.001 134.256L357.251 133.913L357.414 133.488V133.124L355.742 126.022L355.648 125.552L355.626 125.233L355.685 124.978L355.836 124.804L356.086 124.651L356.474 124.517L359.669 123.476L360.433 123.188L361.179 122.797L361.9 122.343L362.6 121.776L363.256 121.172L363.865 120.504L364.434 119.774L364.961 119.017L365.418 118.204L365.817 117.369L366.124 116.532L366.372 115.654L366.535 114.799L366.61 113.945L366.576 113.094L366.438 112.263L366.215 111.455L365.865 110.693L365.385 109.951L364.797 109.277L364.56 109.063L364.299 108.854L364.019 108.645L363.717 108.454L363.413 108.269L363.117 108.102L362.791 107.957L362.45 107.813L362.129 107.689L361.784 107.586L361.44 107.501L361.095 107.423L360.754 107.386L360.433 107.345L360.089 107.348L354.614 107.418L354.124 107.423L353.761 107.512L353.505 107.641L353.273 107.901L353.021 108.309L339.535 131.674ZM359.114 111.562L359.478 111.58L359.798 111.659L360.102 111.766L360.363 111.91L360.576 112.101L360.791 112.31L360.945 112.542L361.098 112.797L361.206 113.072L361.276 113.368L361.346 113.69L361.37 114.009L361.392 114.331L361.378 114.651L361.337 114.971L361.281 115.287L361.216 115.59L361.114 115.869L361.011 116.146L360.885 116.384L360.614 116.835L360.341 117.243L360.022 117.651L359.71 118.019L359.37 118.362L359.012 118.711L358.649 119.012L358.267 119.272L357.866 119.533L357.461 119.75L357.037 119.946L356.59 120.123L356.143 120.276L355.696 120.388L355.225 120.48L354.735 120.531L354.24 120.555L353.753 120.563L353.236 120.526L352.724 120.466L352.401 120.346L352.163 120.136L352.009 119.839L351.922 119.519L351.912 119.157L351.977 118.813L352.122 118.492L356.021 112.133L356.272 111.79L356.571 111.637L357.06 111.586L359.114 111.562ZM177.501 132.307L177.395 132.562L177.315 132.841L177.298 133.118L177.344 133.374L177.45 133.607L177.603 133.797L177.8 133.942L178.055 134.049L178.378 134.085L180.432 134.063L180.86 134.034L181.177 133.988L181.433 133.877L181.667 133.682L181.877 133.403L182.128 132.994L186.967 124.726L187.136 124.471L187.304 124.275L187.495 124.146L187.686 124.057L187.88 124.01L188.071 124.028L188.262 124.071L188.458 124.173L188.607 124.304L188.781 124.447L188.911 124.637L189.047 124.852L189.153 125.083L189.221 125.338L191.067 132.97L191.179 133.375L191.29 133.647L191.444 133.843L191.678 133.945L191.981 133.983L192.408 134.001L194.458 133.974L194.714 133.928L194.929 133.843L195.144 133.709L195.311 133.539L195.456 133.324L195.581 133.086L195.688 132.85L195.75 132.576L195.787 132.297L195.804 132.042L195.801 131.763L195.753 131.531L195.688 131.293L195.6 131.103L195.405 130.81L195.252 130.49L195.078 130.169L194.924 129.83L194.789 129.473L194.66 129.111L194.523 128.73L194.412 128.368L194.3 127.987L194.213 127.6L194.119 127.219L194.054 126.835L193.984 126.454L193.936 126.068L193.885 125.687L193.863 125.325L193.839 124.962L193.834 124.624L193.871 124.192L194.016 123.936L194.358 123.698L195.163 123.328L196.038 123.059L196.891 122.812L197.744 122.523L198.232 122.305L198.698 122.088L199.168 121.827L199.612 121.567L200.059 121.285L200.482 121.001L200.883 120.698L201.265 120.351L201.647 120.026L202.005 119.658L202.364 119.291L202.681 118.905L202.998 118.497L203.311 118.088L203.584 117.656L203.86 117.229L204.111 116.779L204.358 116.304L204.568 115.831L204.778 115.338L204.965 114.828L205.085 114.312L205.182 113.754L205.243 113.225L205.257 112.644L205.23 112.091L205.155 111.538L205.044 110.987L204.907 110.451L204.713 109.924L204.489 109.434L204.228 108.969L203.925 108.548L203.556 108.148L203.184 107.808L202.756 107.517L202.28 107.265L201.768 107.08L201.228 106.959L200.63 106.921L193.443 106.796L192.954 106.889L192.399 107.154L191.893 107.52L191.551 107.888L177.501 132.307ZM194.134 112.332L194.339 112.012L194.595 111.728L194.892 111.492L195.209 111.296L195.55 111.121L195.912 110.99L196.294 110.88L196.676 110.832L197.063 110.805L197.468 110.8L197.855 110.861L198.242 110.939L198.606 111.065L198.95 111.21L199.274 111.417L199.575 111.65L199.836 111.9L200.054 112.222L200.231 112.557L200.361 112.941L200.455 113.518L200.441 114.071L200.342 114.624L200.132 115.18L199.863 115.741L199.505 116.258L199.104 116.774L198.619 117.248L198.111 117.702L197.561 118.134L196.964 118.526L196.35 118.854L195.712 119.16L195.074 119.403L194.436 119.602L193.815 119.738L193.196 119.812L192.619 119.798L192.06 119.737L191.548 119.597L191.226 119.407L190.983 119.152L190.83 118.835L190.784 118.497L190.801 118.134L190.946 117.791L194.134 112.332ZM127.81 121.336L127.827 121.033L128.014 120.754L128.356 120.41L132.165 116.974L132.542 116.607L132.878 116.175L133.151 115.748L133.404 115.273L133.613 114.78L133.777 114.265L133.897 113.73L133.977 113.196L134.014 112.662L134.006 112.128L133.958 111.599L133.866 111.065L133.712 110.555L133.535 110.067L133.315 109.602L133.032 109.157L132.725 108.757L132.356 108.376L131.947 108.059L131.495 107.767L131.15 107.6L130.787 107.456L130.442 107.313L130.055 107.211L129.691 107.109L129.304 107.029L128.919 106.967L128.509 106.932L128.125 106.894L127.716 106.852L127.334 106.838L126.93 106.821L126.542 106.804L126.136 106.811L125.751 106.814L125.387 106.819L125 106.824L124.744 106.83H124.488L124.214 106.811L123.934 106.814L123.63 106.797L123.332 106.801L123.035 106.806L122.736 106.811L122.438 106.833L122.136 106.857L121.837 106.903L121.563 106.95L121.283 107.018L121.008 107.107L120.752 107.238L120.519 107.367L120.305 107.52L120.095 107.692L119.927 107.911L119.756 108.15L105.835 132.584L105.607 133.095V133.459L105.849 133.821L106.17 134.006L106.861 134.194L107.545 134.29L120.548 134.132L121.124 134.081L121.721 133.969L122.34 133.77L122.955 133.528L123.593 133.198L124.207 132.85L124.823 132.436L125.42 131.964L125.988 131.462L126.537 130.945L127.046 130.366L127.506 129.779L127.907 129.181L128.262 128.558L128.555 127.912L128.782 127.27L128.922 126.631L128.978 126.012L128.951 125.372L128.815 124.777L127.902 121.715L127.81 121.336ZM116.243 123.22L116.47 122.877L116.769 122.576L117.086 122.338L117.467 122.162L117.854 122.009L118.279 121.921L118.726 121.87L119.178 121.865L119.647 121.902L120.099 121.98L120.57 122.082L121.022 122.227L121.469 122.389L121.902 122.579L122.289 122.807L122.675 123.04L123.002 123.312L123.304 123.584L123.565 123.88L123.762 124.178L123.891 124.45L123.98 124.773L124.05 125.088L124.096 125.432L124.101 125.772L124.064 126.115L124.023 126.454L123.942 126.798L123.84 127.117L123.692 127.42L123.547 127.699L123.379 127.936L123.043 128.344L122.661 128.711L122.279 129.036L121.878 129.339L121.431 129.599L121.008 129.817L120.537 130.016L120.072 130.169L119.577 130.327L119.089 130.439L118.599 130.507L118.088 130.579L117.576 130.606L117.057 130.635L116.527 130.62L116.015 130.606L115.496 130.547L114.96 130.49L114.449 130.41L113.932 130.332L113.437 130.166L113.116 129.873L113.111 129.529L113.229 128.738L113.246 128.548L113.289 128.378L116.243 123.22ZM124.413 111.092L124.819 111.028L125.201 111L125.587 110.995L125.95 111.055L126.314 111.116L126.658 111.218L127.003 111.363L127.307 111.529L127.562 111.72L127.823 111.948L128.042 112.203L128.214 112.458L128.345 112.756L128.438 113.072L128.485 113.411L128.467 113.778L128.405 114.159L128.286 114.567L128.098 114.976L127.888 115.362L127.656 115.705L127.38 116.03L127.107 116.309L126.812 116.588L126.496 116.83L126.155 117.042L125.792 117.243L125.428 117.396L125.07 117.549L124.664 117.68L124.284 117.772L123.878 117.842L123.472 117.912L123.062 117.935L122.658 117.939L122.252 117.944L121.846 117.906L121.436 117.852L121.032 117.791L120.645 117.689L120.406 117.587L120.276 117.396L120.252 117.117L120.268 116.69L120.309 116.476L120.394 116.221L120.472 115.942L120.599 115.641L120.742 115.319L120.911 114.999L121.097 114.632L121.307 114.288L121.515 113.945L121.749 113.583L121.982 113.234L122.209 112.914L122.462 112.589L122.694 112.291L122.95 112.007L123.178 111.771L123.412 111.557L123.627 111.404L123.835 111.274L124.026 111.186L124.413 111.092ZM180.768 63.4132L181.089 63.5374L181.438 63.9371L181.532 64.342L181.368 64.9816L181.102 65.6705L180.814 66.3168L169.49 86.2185L169.345 86.5621L169.353 86.8785L169.442 87.1762L169.614 87.4314L169.875 87.6185L170.179 87.7205L170.411 87.7801L170.672 87.8209L170.928 87.8362L171.184 87.8532L171.44 87.8498L171.696 87.8447L171.953 87.8209L172.209 87.7988L172.443 87.729L172.699 87.6814L172.938 87.5946L173.17 87.5011L173.402 87.3939L173.617 87.2646L173.826 87.1286L174.036 86.9806L174.207 86.8037L174.377 86.6336L174.54 86.4141L174.664 86.1998L187.135 64.4662L187.43 63.9695L187.681 63.6497L187.933 63.4728L188.23 63.3843L188.617 63.3571L199.905 63.1802L200.613 63.255L201.303 63.4353L201.666 63.6395L201.973 63.9371L202.145 64.1685L202.275 64.3964L202.388 64.6516L202.456 64.9067L202.528 65.1874L202.551 65.4595L202.555 65.7385L202.541 66.0175L202.524 66.2913L202.485 66.5941L202.425 66.8731L202.364 67.1707L202.285 67.448L202.2 67.727L202.121 68.0059L202.038 68.2849L201.959 68.54L201.879 68.8003L201.796 69.0333L201.61 69.5896L201.362 70.1101L201.115 70.6255L200.822 71.1188L200.509 71.5729L200.175 72.0016L199.798 72.4149L199.397 72.8045L198.991 73.1532L198.548 73.4763L198.083 73.7842L197.618 74.0496L197.109 74.2911L196.598 74.4901L196.065 74.6483L195.536 74.7844L194.98 74.8814L194.404 74.9494L193.824 74.9596L193.247 74.9511L192.582 74.895L191.831 74.844L191.104 74.7266L190.396 74.565L189.772 74.2996L185.328 71.8519L184.941 71.6852L184.685 71.6903L184.412 71.908L184.344 71.9318L184.154 72.1445L184.093 72.4047L184.187 72.8096L184.41 73.4219L186.819 79.6561L187.411 80.5848L188.394 81.9728L189.096 82.9033L189.506 83.3677L189.903 83.7844L190.313 84.1841L190.705 84.5601L191.096 84.9173L191.505 85.2337L191.898 85.5449L192.307 85.8188L192.717 86.0893L193.15 86.3172L193.578 86.5434L194.011 86.7526L194.482 86.9159L194.956 87.0775L195.451 87.2408L195.968 87.3616L196.48 87.4773L197.039 87.5793L197.64 87.678L198.242 87.7511L198.624 87.7886L199.01 87.826L199.397 87.8396L199.76 87.8532L200.124 87.8498L200.465 87.8447L200.808 87.8175L201.149 87.7477L201.47 87.678L201.768 87.5895L202.067 87.4773L202.34 87.348L202.616 87.1711L202.867 86.9755L203.101 86.7339L203.311 86.4788L203.52 86.1777L203.688 85.8341L203.85 85.4667L203.995 85.0397L204.075 84.6315L204.027 84.3559L203.785 84.1892L203.314 84.0259L202.5 83.8865L201.623 83.9018L200.748 83.9375L199.89 83.9103L199.486 83.8507L199.076 83.7946L198.689 83.7334L198.283 83.6551L197.874 83.5582L197.486 83.4561L197.082 83.3336L196.69 83.1908L196.326 83.0241L195.96 82.8608L195.591 82.6737L195.246 82.4661L194.902 82.2569L194.598 82.0069L194.274 81.7364L193.993 81.4625L193.728 81.1462L193.467 80.8315L193.247 80.4743L193.053 80.0915L192.935 79.6663L193.061 79.2614L193.378 79.0607L193.993 78.9689L194.743 78.9127L195.47 78.8379L196.215 78.7188L196.918 78.5998L197.621 78.4433L198.326 78.2391L199.005 78.035L199.667 77.7697L200.305 77.5043L200.939 77.176L201.553 76.846L202.127 76.4514L202.695 76.0381L203.227 75.5822L203.752 75.0804L204.237 74.5599L204.675 74.002L205.112 73.376L205.51 72.7296L205.863 72.0424L206.175 71.396L206.487 70.7326L206.753 70.0216L206.975 69.3157L207.069 68.6098L207.391 64.5138L207.408 64.2586L207.448 64.0392L207.488 63.8725L207.55 63.7007L207.633 63.5697L207.717 63.4626L207.865 63.3758L208.016 63.3061L208.207 63.2636L208.439 63.2176L208.718 63.1887L209.039 63.1666L209.403 63.1564L209.832 63.1751L236.865 63.3248L237.191 63.4081L237.495 63.5697L237.732 63.8249L237.909 64.1413L237.955 64.4815L237.877 64.8013L236.316 67.5365L236.063 67.9447L235.79 68.1828L235.449 68.2747L234.895 68.3257L219.838 68.5588L218.729 68.6438L217.62 68.8513L216.47 69.2136L215.344 69.6559L214.239 70.2257L213.157 70.8857L212.124 71.624L211.132 72.4694L210.228 73.3624L209.385 74.332L208.652 75.327L208.005 76.4038L207.488 77.4771L207.101 78.5913L206.842 79.7258L206.753 80.8774L206.813 82.0103L207.065 83.1584L207.512 84.259L208.145 85.3357L208.541 85.8188L209.017 86.2372L209.558 86.637L210.163 86.9908L210.812 87.2783L211.518 87.5436L212.226 87.7477L212.982 87.9059L213.749 87.9978L214.524 88.0318L215.268 88.0165L215.994 87.9416L216.721 87.7801L217.378 87.5793L218.018 87.2919L218.567 86.9432L219.074 86.5298L219.493 86.0331L219.829 85.4531L220.072 84.7897L220.15 84.2964L220.082 83.9749L219.826 83.7436L219.391 83.6041L219.111 83.5667L218.838 83.5497L218.535 83.5293L218.236 83.5582L217.937 83.5854L217.617 83.6092L217.318 83.6551L216.997 83.7062L216.68 83.73L216.377 83.7759L216.061 83.8031L215.757 83.8082L215.459 83.8133L215.162 83.7997L214.858 83.7623L214.578 83.6772L214.299 83.5752L214.043 83.451L213.782 83.2826L213.545 83.0751L212.982 82.4457L212.603 81.7874L212.381 81.1087L212.306 80.4504L212.379 79.7666L212.562 79.0794L212.852 78.416L213.246 77.7459L213.731 77.125L214.276 76.4956L214.909 75.9309L215.561 75.3696L216.284 74.8661L217.001 74.4068L217.741 74.0122L218.506 73.655L219.232 73.3896L219.956 73.1668L220.635 73.046L221.278 72.995L231.201 72.8419L231.756 72.8742L232.058 73.0001L232.324 73.3335L232.413 73.6771L232.356 74.2537L232.193 74.8712L231.971 75.4104L225.846 86.1029L225.703 86.4703L225.689 86.8105L225.802 87.1065L226.015 87.3378L226.3 87.5249L226.645 87.6491L226.877 87.6865L227.116 87.7052L227.353 87.7426L227.609 87.7596L227.864 87.7801L228.12 87.775L228.397 87.7698L228.653 87.7477L228.932 87.7188L229.188 87.6729L229.444 87.6031L229.7 87.5351L229.934 87.445L230.166 87.3565L230.4 87.2272L230.613 87.0962L230.804 86.9432L230.973 86.7731L231.135 86.5774L231.285 86.358L243.331 64.9969L243.5 64.7366L243.691 64.4764L243.901 64.262L244.133 64.0851L244.361 63.915L244.617 63.7381L244.873 63.6072L245.148 63.4711L245.403 63.3418L245.656 63.2312L245.912 63.119L246.168 63.0084L246.401 62.9012L246.633 62.7652L246.825 62.6359L247.016 62.5066L247.184 62.3535L247.328 62.2038L247.435 62.0099L247.521 61.8143L247.575 61.3448L247.439 61.0046L247.161 60.7546L246.751 60.6763L167.011 60.6015L166.438 60.7376L165.865 61.0897L165.421 61.4809L165.254 61.7173L165.111 61.9725L165.049 62.2327L165.054 62.4879L165.1 62.7209L165.232 62.9097L165.426 63.0543L165.682 63.1802L166.028 63.2176L170.476 63.3605L170.78 63.3979L171.013 63.4592L171.208 63.5646L171.361 63.7092L171.469 63.8759L171.539 64.0715L171.585 64.2807V64.4951L171.549 64.7315L171.506 64.9629L171.428 65.201L171.348 65.4374L171.264 65.6518L171.138 65.8457L167.641 71.9778L167.328 72.3027L166.898 72.5442L166.411 72.6803L165.921 72.7313L165.493 72.7398L164.998 72.6378L164.759 72.4506L164.626 72.0288L164.532 71.4947L164.481 70.9844L164.473 70.4741L164.486 70.0029L164.524 69.5521L164.56 69.1065L164.616 68.6557L164.672 68.2305L164.71 67.8018L164.723 67.3749L164.737 66.9513L164.71 66.5244L164.64 66.0736L164.524 65.6279L164.37 65.1636L164.169 64.6754L163.879 64.1685L163.531 63.6412L163.093 63.0917L162.57 62.5066L161.943 61.9402L161.23 61.4571L160.433 61.025L159.571 60.6712L158.643 60.3889L157.703 60.1881L156.714 60.0589L155.709 59.9891L154.686 60.0027L153.679 60.1048L152.7 60.2715L151.739 60.5181L150.845 60.8532L149.979 61.2717L149.214 61.7548L148.493 62.3399L147.887 62.9897L147.384 63.7228L147.012 64.5597L146.746 65.4612L146.69 65.8644L146.654 66.2505L146.657 66.6315L146.686 67.016L146.737 67.4021L146.83 67.7593L146.942 68.1029L147.072 68.4601L147.23 68.7833L147.403 69.098L147.623 69.4127L147.841 69.6882L148.102 69.9604L148.363 70.2121L148.665 70.4401L148.969 70.6731L149.317 70.8585L149.658 71.0252L150.027 71.1647L150.412 71.2906L150.735 71.3688L151.055 71.4249L151.4 71.4845L151.741 71.5219L152.086 71.5185L152.425 71.5134L152.77 71.5083L153.111 71.4573L153.427 71.3688L153.73 71.2804L154.027 71.1698L154.302 71.0167L154.554 70.8398L154.786 70.6442L154.996 70.406L155.165 70.1475L155.308 69.8447L155.429 69.5011L155.515 69.1388L155.528 68.7357L155.477 68.2849L155.155 68.1216L154.083 67.9464L153.031 67.727L152.705 67.5654L152.401 67.3323L152.164 67.016L151.987 66.72L151.918 66.4223L151.889 66.1246L151.93 65.8695L152.057 65.5905L152.202 65.3303L152.411 65.0921L152.643 64.8761L152.937 64.6805L153.235 64.4849L153.553 64.308L153.894 64.1549L154.232 64.0205L154.573 63.9099L154.914 63.8164L155.257 63.7705L155.556 63.7228L155.854 63.7194L156.11 63.7143L156.519 63.7705L156.925 63.8725L157.294 63.9916L157.639 64.1362L157.983 64.3046L158.28 64.49L158.565 64.6992L158.826 64.9305L159.087 65.1823L159.305 65.4544L159.501 65.7538L159.679 66.0464L159.809 66.3866L159.945 66.7234L160.056 67.0636L160.124 67.4259L160.196 67.8103L160.223 68.1913L160.228 68.5962L160.215 68.9993L160.196 69.2375L160.182 69.4739L160.139 69.7069L160.078 69.9655L160.042 70.2206L159.957 70.4588L159.878 70.7139L159.793 70.9691L159.691 71.2072L159.588 71.4437L159.464 71.6818L159.319 71.8757L159.176 72.0696L158.985 72.2652L158.812 72.4149L158.602 72.5493L158.387 72.6565L158.155 72.7432L157.903 72.7942L157.623 72.8181L145.992 73.0001L144.878 73.1021L143.793 73.3335L142.749 73.6907L141.777 74.1738L140.843 74.764L139.977 75.4614L139.175 76.2184L138.458 77.0399L137.853 77.904L137.336 78.8294L136.94 79.753L136.636 80.6954L136.479 81.6582L136.45 82.5767L136.572 83.4918L136.843 84.3372L137.285 85.1418L137.872 85.88L138.655 86.5298L139.624 87.0877L140.485 87.4586L141.365 87.7477L142.246 87.9655L143.15 88.1237L144.049 88.1917L144.948 88.2019L145.866 88.1424L146.76 88.0216L147.655 87.8583L148.554 87.6304L149.448 87.3616L150.318 87.0265L151.168 86.6744L151.997 86.256L152.821 85.8137L153.609 85.3544L154.39 84.8356L155.131 84.3083L155.825 83.7436L156.501 83.1584L156.734 82.939L157.007 82.6617L157.302 82.3352L157.596 81.9694L157.932 81.5782L158.266 81.1649L158.625 80.7566L158.983 80.3246L159.362 79.8925L159.715 79.4605L160.093 79.0284L160.476 78.6372L160.851 78.2715L161.211 77.9228L161.569 77.6166L161.91 77.3563L162.245 77.1607L162.567 77.0076L162.883 76.9396L163.162 76.9107L163.507 76.9702L163.763 77.091L163.983 77.2407L164.113 77.4312L164.179 77.6625L164.16 77.9177L164.08 78.2204L163.937 78.5402L159.733 86.0705L159.512 86.6285L159.534 87.0316L159.824 87.4126L160.228 87.5997L160.573 87.6593L160.894 87.6967L161.216 87.7324L161.514 87.7511L161.811 87.7239L162.091 87.6967L162.371 87.6491L162.646 87.581L162.901 87.5147L163.157 87.4041L163.391 87.2732L163.625 87.1388L163.857 86.9857L164.067 86.7901L164.276 86.5945L164.468 86.3818L164.677 86.1437L164.868 85.8851L165.054 85.6249L165.222 85.3221L177.358 64.0851L177.586 63.7415L177.818 63.5425L178.16 63.4779L178.694 63.4439L180.768 63.4132ZM153.911 76.647L154.256 76.6827L154.53 76.8086L154.75 76.9991L154.88 77.2543L154.926 77.5281L154.889 77.8479L154.764 78.1745L154.471 78.6202L154.092 79.1169L153.65 79.6323L153.142 80.1528L152.57 80.6733L151.956 81.1887L151.303 81.6905L150.622 82.1872L149.9 82.6243L149.155 83.0377L148.414 83.4085L147.669 83.7147L146.923 83.9613L146.197 84.1195L145.47 84.2131L144.784 84.1977L144.124 84.1008L143.518 83.8967L142.94 83.5616L142.442 83.0972L142.138 82.6975L141.896 82.2943L141.742 81.8674L141.674 81.4438L141.645 81.0169L141.705 80.5899L141.807 80.1613L141.971 79.736L142.2 79.3499L142.455 78.9587L142.749 78.5725L143.09 78.2494L143.448 77.9228L143.83 77.6217L144.231 77.3801L144.654 77.1607L145.083 76.9906L145.507 76.8545L145.954 76.7627L146.383 76.7389L153.911 76.647ZM402.738 52.9283L402.42 52.9521L402.076 52.9742L401.734 53.0405L401.371 53.1052L400.989 53.2157L400.603 53.3229L400.197 53.459L399.815 53.607L399.411 53.7601L399.029 53.9591L398.647 54.1547L398.288 54.3503L397.925 54.568L397.567 54.7824L397.249 55.0239L396.951 55.2655L396.652 55.5019L396.402 55.7434L396.187 56.0037L395.999 56.2639L393.918 59.3427L393.648 59.7102L393.414 59.9942L393.201 60.1881L392.967 60.3191L392.669 60.3838L392.329 60.4297H391.883L318.656 60.3923L318.207 60.3974L317.844 60.3565L317.566 60.2902L317.305 60.1371L317.09 59.9432L316.851 59.6642L316.568 59.2968L313.308 54.6565L312.982 54.2653L312.697 54.0288L312.31 53.9455L311.733 53.9234L308.998 53.9319L308.654 53.9778L308.401 54.1309L308.234 54.369L308.149 54.6293L308.113 54.9304L308.159 55.2365L308.266 55.5393L308.705 56.2316L309.203 56.9001L309.706 57.5465L310.181 58.215L310.576 58.9294L310.665 59.2509L310.689 59.5111L310.651 59.7527L310.525 59.9466L310.355 60.0963L310.162 60.2069L309.906 60.314L309.65 60.3599L309.375 60.4025L309.077 60.4076L257.744 59.9483L257.19 60.1014L256.641 60.4722L256.218 60.8634L256.049 61.122L255.946 61.3822L255.924 61.6L255.928 61.8143L255.994 62.0099L256.105 62.18L256.253 62.3331L256.45 62.442L256.665 62.5474L256.902 62.6138L257.158 62.6784H257.437L271.808 62.823L272.494 62.8638L272.839 63.0169L273.035 63.403L273.081 63.8997L272.898 64.6141L272.545 65.2894L272.376 65.5259L272.121 65.7028L271.633 65.7912L271.03 65.7487L270.346 65.6415L269.638 65.4714L268.93 65.2792L268.287 65.1091L267.728 65.0241L266.912 64.9169L266.08 64.8336L265.227 64.7723L264.328 64.7315L263.447 64.689L262.53 64.6941L261.631 64.7179L260.713 64.7859L259.814 64.8982L258.944 65.0513L258.086 65.252L257.233 65.4885L256.426 65.7946L255.658 66.1672L254.941 66.6026L254.259 67.101L253.628 67.6674L253.077 68.3172L252.574 69.0316L252.135 69.86L251.721 70.9419L251.559 71.8706L251.567 72.716L251.791 73.4304L252.183 74.036L252.724 74.5548L253.394 74.9834L254.167 75.3492L255.047 75.6468L255.994 75.885L256.977 76.0738L258.029 76.2235L259.053 76.3306L260.102 76.4327L261.109 76.516L262.096 76.5994L262.995 76.6844L263.806 76.7661L264.538 76.892L265.138 77.0638L265.459 77.193L265.739 77.3427L266 77.5196L266.215 77.7323L266.385 77.9517L266.539 78.1881L266.651 78.4433L266.74 78.7035L266.806 78.9876L266.834 79.2648V79.5676L266.796 79.85L266.737 80.1341L266.634 80.413L266.508 80.6954L266.358 80.9556L266.191 81.1972L265.981 81.4353L265.771 81.653L265.515 81.8487L265.025 82.0851L264.599 82.0902L264.253 81.8521L263.903 81.3333L263.447 80.5984L262.907 79.9521L262.32 79.3669L261.654 78.8515L260.941 78.4007L260.186 78.035L259.413 77.7135L258.579 77.4771L257.741 77.2866L256.864 77.1794L255.984 77.1199L255.109 77.142L254.232 77.1896L253.379 77.3189L252.526 77.4958L251.693 77.7374L250.907 78.0214L250.143 78.3497L249.438 78.7409L248.759 79.1951L248.401 79.5438L248.106 79.981L247.855 80.4777L247.667 80.9982L247.505 81.5425L247.386 82.0154L247.3 82.4287L247.263 82.8199L247.268 83.2095L247.295 83.5752L247.384 83.9205L247.497 84.2675L247.626 84.6111L247.804 84.9139L248 85.2388L248.218 85.5228L248.457 85.8018L248.716 86.0791L248.996 86.3172L249.276 86.5536L249.578 86.7918L249.904 87.0078L250.226 87.1983L250.547 87.3939L250.873 87.5657L251.219 87.7154L251.688 87.974L251.949 88.1883L252.081 88.4724L252.108 88.9044L251.944 89.7719L251.787 90.636L251.833 91.114L251.963 91.393L252.202 91.5648L252.654 91.6958L253.427 91.8659L254.089 91.9934L254.689 92.0342L255.225 92.053L255.696 92.007L256.1 91.922L256.441 91.7876L256.757 91.6345L257.036 91.4644L257.289 91.2433L257.521 91.0085L257.755 90.767L257.987 90.5119L258.22 90.2465L258.449 89.9624L258.722 89.7022L259.02 89.4232L259.338 89.1817L259.72 88.9231L260.145 88.7037L260.998 88.355L261.868 88.0488L262.762 87.7664L263.661 87.5011L264.556 87.2408L265.45 86.9568L266.303 86.6285L266.893 86.3682L267.472 86.0382L268.064 85.6708L268.613 85.2575L269.162 84.7795L269.695 84.2777L270.179 83.7385L270.645 83.172L271.063 82.5869L271.442 81.9541L271.776 81.3282L272.069 80.6784L272.271 80.0082L272.414 79.3346L272.513 78.6423L272.503 77.9687L272.434 77.3002L272.274 76.6317L272.032 75.9819L271.684 75.3355L271.203 74.6858L270.664 74.1704L270.058 73.7383L269.393 73.4168L268.707 73.1804L267.973 73.0103L267.224 72.8793L266.457 72.8181L265.663 72.8011L264.872 72.8045H264.08L263.289 72.8283L262.543 72.8555H261.793L261.085 72.813L260.423 72.7534L259.8 72.6224L259.246 72.4319L258.751 72.1734L258.318 71.8281L258.075 71.4811L257.987 71.0524L258.067 70.6629L258.318 70.2683L258.7 69.9009L259.125 69.5998L259.59 69.3582L260.085 69.1813L260.592 69.0691L261.44 68.9585L261.943 68.9296L262.985 68.9347L263.437 68.9534L263.862 68.9721L264.336 68.9959L264.783 69.0129L265.232 69.0333L265.706 69.0555L266.172 69.0742L266.624 69.098L267.095 69.115L267.542 69.1575L268.018 69.2188L268.465 69.2834L268.917 69.3718L269.367 69.4569L269.797 69.5811L270.244 69.7103L270.653 69.8821L271.082 70.0778L271.469 70.2921L271.878 70.5472L272.051 70.6578L272.271 70.7837L272.484 70.8959L272.723 71.0014L272.955 71.1086L273.216 71.1732L273.472 71.2344L273.705 71.2582L273.966 71.2804L274.198 71.2344L274.413 71.1919L274.623 71.0813L274.836 70.9283L275.005 70.7565L275.173 70.5183L278.583 64.2076L278.811 63.7739L279.025 63.4507L279.234 63.2295L279.444 63.0764L279.683 62.9897L279.98 62.9472H280.367L310.474 63.0407L310.778 63.0577L311.034 63.1258L311.289 63.2312L311.486 63.3843L311.658 63.5799L311.788 63.7705L311.876 64.012L311.881 64.2722L311.84 64.5495L311.719 64.8336L308.724 70.4026L308.514 70.7088L308.261 70.947L307.988 71.1222L307.688 71.2072L307.367 71.1885L307.065 71.1035L306.786 70.8857L306.269 70.4588L305.728 70.0914L305.168 69.8124L304.609 69.5998L304.032 69.4467L303.432 69.3616L302.83 69.3208L302.21 69.3259L301.591 69.3667L300.972 69.4552L300.358 69.5913L299.737 69.7444L299.14 69.9383L298.52 70.1373L297.923 70.3567L297.328 70.5744L296.755 70.8126L296.2 71.0524L295.646 71.2719L295.117 71.5134L294.626 71.5542L294.151 71.2991L293.481 70.8262L292.838 70.3057L292.167 69.8311L291.476 69.4229L290.704 69.1252L289.544 68.87L288.37 68.7408L287.15 68.7255L285.91 68.8615L284.671 69.0793L283.436 69.428L282.222 69.8634L281.033 70.389L279.907 71.0201L278.825 71.7345L277.827 72.5204L276.896 73.3896L276.094 74.3234L275.382 75.3219L274.795 76.3629L274.357 77.4686L274.055 78.6151L273.915 79.7854L273.951 81.0169L274.18 82.2518L274.403 82.9203L274.734 83.5718L275.126 84.1756L275.601 84.7795L276.141 85.3187L276.747 85.8154L277.371 86.2662L278.061 86.6557L278.75 86.9993L279.458 87.2544L280.19 87.4262L280.898 87.5334L281.601 87.5521L282.262 87.4637L282.924 87.2868L283.521 86.9806L284.05 86.5894L284.537 86.0705L284.954 85.4208L285.267 84.6383L285.388 84.1382L285.366 83.8133L285.123 83.5752L284.717 83.4272L284.074 83.32L283.433 83.303L282.771 83.2826L282.128 83.218L281.503 83.0921L280.884 82.8148L280.082 82.1872L279.541 81.4949L279.253 80.7192L279.178 79.9197L279.299 79.0743L279.606 78.2289L280.067 77.3835L280.655 76.5569L281.355 75.7778L282.136 75.0634L282.984 74.4068L283.875 73.8404L284.787 73.3845L285.705 73.0613L286.575 72.8606L287.433 72.813L288.208 72.9626L288.89 73.2858L289.455 73.8216L289.893 74.5786L290.006 74.9035L290.052 75.2063L290.076 75.5124L290.057 75.7914L290.02 76.0738L289.934 76.3527L289.851 76.613L289.731 76.8732L289.605 77.1573L289.455 77.4176L289.312 77.6761L289.161 77.9364L288.994 78.1966L288.868 78.4569L288.725 78.7171L288.622 78.9774L288.515 79.2614L288.435 79.5387L288.394 79.8228L288.38 80.1256L288.426 80.5151L288.639 80.7328L289.134 80.9012L289.521 81.0067L289.972 81.073L290.461 81.1377L290.978 81.1785L291.49 81.1751L292.004 81.1325L292.474 81.0645L292.897 80.9556L293.261 80.7804L293.578 80.5423L293.877 80.3008L294.15 80.0184L294.383 79.7156L294.612 79.3669L294.846 79.0233L295.056 78.6525L295.282 78.2851L295.492 77.9143L295.721 77.5281L295.955 77.1335L296.205 76.7661L296.48 76.4004L296.773 76.0278L297.091 75.6842L297.449 75.3543L297.831 75.0532L298.256 74.7691L298.744 74.5276L299.256 74.3098L299.682 74.2027L300.109 74.0904L300.557 74.0445L301.009 74.0275L301.456 74.0445L301.883 74.1057L302.313 74.1925L302.722 74.3234L303.109 74.4901L303.454 74.6858L303.776 74.9035L304.037 75.1586L304.275 75.4614L304.452 75.7863L304.582 76.1537L304.628 76.545L304.633 76.9566L304.536 77.4074L304.391 77.8853L304.14 78.4058L299.807 86.2985L299.643 86.7765L299.82 87.2323L299.885 87.3378L300.1 87.6406L300.38 87.7698L300.851 87.7886L303.244 87.7801L303.654 87.7562L303.971 87.6678L304.205 87.4977L304.46 87.1949L304.754 86.7152L317.272 64.4662L317.542 63.9933L317.774 63.6446L317.984 63.3843L318.199 63.2074L318.431 63.1241L318.686 63.0781L319.033 63.0543L333.399 63.0084L334.064 63.1564L334.69 63.4592L334.97 63.6718L335.057 63.932L334.978 64.3879L334.857 64.8659L334.67 65.3626L334.419 65.8423L334.146 66.2743L333.81 66.6638L333.428 66.9887L333.11 67.1656L332.769 67.249L332.169 67.2541L331.485 67.169L330.734 67.0398L329.937 66.8918L329.146 66.7659L328.354 66.6809L327.627 66.6638L327.03 66.7098L326.411 66.7523L325.792 66.8407L325.195 66.9513L324.575 67.0636L323.978 67.2167L323.38 67.3698L322.783 67.5467L322.185 67.7644L321.588 67.9821L321.017 68.2203L320.462 68.4839L319.889 68.768L319.359 69.0504L318.804 69.3769L318.296 69.7001L317.789 70.0505L317.3 70.4401L316.815 70.8313L316.368 71.2242L315.925 71.6393L315.481 72.0934L315.041 72.5714L314.597 73.0698L314.174 73.5886L313.755 74.1329L313.354 74.7181L312.977 75.3032L312.641 75.8884L312.328 76.5211L312.078 77.125L311.873 77.751L311.709 78.4007L311.612 79.0335L311.574 79.6799L311.626 80.3093L311.742 80.9335L311.938 81.5595L312.25 82.1872L312.618 82.7961L312.92 83.1584L313.227 83.5293L313.55 83.8729L313.874 84.1977L314.22 84.4954L314.608 84.7557L314.998 84.9938L315.426 85.2064L315.878 85.3782L316.349 85.5075L316.82 85.6147L317.294 85.6759L317.765 85.7218L318.236 85.7167H318.707L319.195 85.6946L319.666 85.647L320.137 85.6062L320.626 85.5602L321.095 85.5126L321.566 85.448L322.037 85.4021L322.484 85.4191L322.745 85.5722L322.858 85.8103L322.899 86.159L322.909 86.591L322.936 87.0639L323.025 87.3888L323.154 87.5844L323.393 87.7154L323.757 87.7988L324.524 87.9059H325.232L325.875 87.8362L326.449 87.6593L326.979 87.4398L327.445 87.1388L327.87 86.7663L328.252 86.3529L328.61 85.8987L328.946 85.4208L329.258 84.8815L329.552 84.3372L329.845 83.7759L330.115 83.1908L330.408 82.6056L330.72 82.0443L331.038 81.454L331.372 80.9148L331.751 80.3943L332.15 79.8925L332.72 79.2614L333.269 78.7001L333.794 78.1558L334.327 77.6761L334.852 77.2219L335.364 76.7899L335.893 76.3953L336.405 76.0278L336.933 75.6979L337.466 75.373L337.993 75.0889L338.547 74.8065L339.121 74.5225L339.697 74.2622L340.311 74.0207L340.951 73.7604L341.613 73.5189L342.292 73.2773L343.019 73.0188L343.783 72.7585L343.998 72.6701L344.208 72.5578L344.399 72.4285L344.612 72.2754L344.803 72.1036L344.994 71.9318L345.182 71.7362L345.352 71.5185L345.521 71.2804L345.665 71.0626L345.815 70.8211L345.939 70.5608L346.042 70.3227L346.122 70.0641L346.207 69.8039L346.248 69.5658L346.286 69.3259V69.0878L346.28 68.8513L346.149 68.3955L345.782 68.1828L345.247 68.0519L344.581 67.9685L343.896 67.9736L343.257 68.0161L342.703 68.1505L338.952 69.3531H338.588L338.286 69.1388L338.133 68.7918L338.235 68.4465L340.685 64.0443L340.956 63.5646L341.212 63.3061L341.505 63.1989L341.958 63.1751L366.936 63.0917L367.491 63.1088L368.134 63.1938L368.734 63.3894L369.186 63.6854L369.47 64.1226L369.41 64.5971L369.307 64.8387L369.205 65.0751L369.098 65.3133L368.953 65.531L368.804 65.7436L368.659 65.9392L368.489 66.1382L368.296 66.2879L368.105 66.441L367.895 66.5482L367.663 66.6366L367.424 66.6826L367.168 66.7047H366.912L366.633 66.64L366.013 66.5159L365.413 66.4087L364.794 66.3015L364.169 66.2369L363.531 66.1944L362.907 66.1774L362.287 66.157H361.667L361.025 66.1621L360.404 66.1859L359.785 66.208L358.845 66.2777L357.907 66.3662L356.968 66.5023L356.025 66.6775L355.09 66.8952L354.152 67.1605L353.236 67.4633L352.34 67.7916L351.47 68.1828L350.617 68.62L349.793 69.0793L349.005 69.5998L348.241 70.1662L347.541 70.7752L346.867 71.4488L346.257 72.1632L345.688 72.9201L345.185 73.7247L344.747 74.5922L344.351 75.5022L344.184 75.9581L344.039 76.4548L343.919 76.9345L343.797 77.4312L343.694 77.9279L343.616 78.4246L343.559 78.9264L343.522 79.423L343.527 79.9197L343.532 80.4181L343.583 80.8944L343.652 81.3928L343.764 81.8674L343.901 82.3403L344.076 82.8182L344.273 83.2741L344.515 83.7062L344.798 84.1382L345.102 84.5464L345.47 84.9547L345.903 85.3629L346.354 85.7321L346.83 86.0552L347.328 86.3784L347.845 86.6608L348.357 86.9159L348.875 87.1541L349.416 87.3888L349.952 87.6491L350.469 87.8821L350.789 88.0777L350.985 88.2903L351.05 88.5098L351.033 88.7462L350.931 88.9639L350.784 89.2021L350.571 89.4198L350.337 89.6137L350.127 89.8093L349.854 90.0509L349.662 90.289L349.537 90.5289L349.494 90.7432L349.583 90.9609L349.802 91.1327L350.165 91.2586L350.552 91.347L350.939 91.4066L351.303 91.4304L351.642 91.4491L351.987 91.4253L352.304 91.3845L352.649 91.3198L352.946 91.2314L353.263 91.1429L353.585 91.0307L353.901 90.9252L354.223 90.7891L354.544 90.6598L354.885 90.5289L355.225 90.3996L355.566 90.2686L356.035 90.1155L356.31 90.1819L356.595 90.4421L356.851 90.6973L357.134 90.9575L357.395 91.1701L357.693 91.3419L357.997 91.4729L358.318 91.5563L358.659 91.6022L359.021 91.5971L359.408 91.5325L359.725 91.4253L360.005 91.2263L360.358 90.7058L360.479 90.1206L360.541 89.493L360.638 88.8891L360.907 88.3703L361.397 87.9978L361.648 87.8447L361.928 87.6967L362.202 87.5606L362.458 87.4126L362.734 87.2595L362.99 87.0826L363.241 86.9296L363.48 86.7339L363.707 86.5638L363.946 86.3682L364.155 86.1726L364.347 85.9549L364.533 85.7167L364.703 85.4752L364.848 85.2149L364.974 84.9564L365.077 84.6536L365.179 84.3474L365.24 84.0259L365.278 83.6789L365.273 83.2707L365.227 83.0087L365.095 82.8795L364.84 82.8148H364.434L363.284 82.99L362.151 83.2962L361.025 83.5854L360.445 83.6738L359.85 83.7844L359.273 83.8729L358.695 83.9375L358.118 84.0259L357.545 84.0736L356.985 84.1195L356.431 84.1433H355.876L355.317 84.1008L354.762 84.0583L354.227 83.9749L353.691 83.8695L353.174 83.7198L352.657 83.5242L352.146 83.3115L351.629 83.0564L351.129 82.7298L350.66 82.3862L350.16 81.9728L349.989 81.7823L349.815 81.5884L349.662 81.3928L349.532 81.1785L349.401 80.9607L349.29 80.7226L349.201 80.4879L349.136 80.2497L349.066 79.9895L349.018 79.7479L348.996 79.4928L348.972 79.2325L348.967 78.9723L348.964 78.712L348.981 78.4518L349.024 78.1932L349.061 77.9551L349.104 77.6914L349.187 77.4533L349.247 77.2168L349.602 76.3493L350.039 75.5669L350.523 74.8525L351.093 74.2027L351.726 73.6175L352.407 73.0919L353.128 72.6378L353.892 72.2244L354.698 71.8757L355.532 71.5695L356.402 71.3042L357.279 71.0864L358.173 70.9146L359.072 70.7786L359.967 70.6901L360.866 70.6442L361.765 70.617H362.618L363.475 70.634L364.29 70.6952L364.611 70.7377L364.952 70.8024L365.338 70.8874L365.725 70.9929L366.153 71.1001L366.563 71.2293L367.011 71.3603L367.438 71.4624L367.892 71.5729L368.344 71.675L368.77 71.7634L369.2 71.806L369.606 71.8468L370.01 71.8434L370.374 71.8009L370.715 71.7124L371.036 71.5831L371.334 71.4113L371.585 71.146L371.795 70.8449L375.103 64.968L375.461 64.359L375.73 63.9269L375.986 63.6446L376.22 63.4915L376.476 63.4268L376.798 63.403L380.193 63.3928L380.669 63.4541L380.973 63.8215L380.995 63.8861L381.149 64.211L381.132 64.5359L380.903 64.9918L369.205 86.4788L368.977 86.9568L368.934 87.2595L369.093 87.6031H369.111L369.307 87.9059L369.569 88.0352L369.973 88.0522L372.707 88.0488L373.052 88.0437L373.327 88.0267L373.566 87.957L373.775 87.8498L373.966 87.7188L374.137 87.5249L374.325 87.2646L374.535 86.9159L374.785 86.5026L386.903 64.5359L387.051 64.2756L387.261 64.063L387.476 63.8861L387.708 63.7143L387.961 63.5833L388.216 63.4966L388.496 63.4302L388.793 63.3622L389.069 63.3418H389.371L389.67 63.3605L389.95 63.3792L390.229 63.4217L390.526 63.5323L390.765 63.7466L390.936 64.0256L391.03 64.3505L391.035 64.6754L390.992 65.0241L390.873 65.3252L379.171 86.6829L379.004 87.115L379.206 87.5708L379.293 87.7426L379.507 88.0437L379.768 88.1747L380.239 88.1917L382.288 88.1883H382.74L383.104 88.1645L383.378 88.0964L383.617 88.0114L383.825 87.8821L383.994 87.6814L384.161 87.4262L384.352 87.1031L397.052 63.9831L397.2 63.7466L397.35 63.5748L397.536 63.4217L397.792 63.3333L398.114 63.2687L398.541 63.221H399.073L399.781 63.2176L426.471 63.3469L426.897 63.3894L427.244 63.5136L427.523 63.733L427.701 64.0341L427.747 64.4253L427.709 64.7485L427.648 65.0938L427.564 65.4L427.445 65.7249L427.319 66.0277L427.15 66.3287L426.983 66.6128L426.792 66.8731L426.582 67.1333L426.35 67.3698L426.116 67.5875L425.841 67.8069L425.585 67.977L425.311 68.1539L425.012 68.307L424.714 68.4142L424.415 68.5264L424.094 68.5911L423.777 68.637H423.456L404.636 68.6982L403.869 68.7442L403.099 68.8139L402.354 68.9449L401.608 69.1201L400.858 69.3395L400.136 69.6219L399.436 69.9281L398.734 70.2768L398.077 70.668L397.415 71.1035L396.782 71.5593L396.19 72.0611L395.617 72.5816L395.068 73.1481L394.564 73.7332L394.099 74.3422L393.655 74.9681L393.283 75.6417L392.925 76.3119L392.613 77.0093L392.425 77.5281L392.263 78.0486L392.142 78.5879L392.039 79.1543L391.959 79.7156L391.905 80.3008L391.908 80.8621L391.918 81.4251L391.987 82.0103L392.08 82.5716L392.193 83.1108L392.374 83.6551L392.57 84.1705L392.831 84.6672L393.116 85.1231L393.44 85.5739L393.815 86.0059L394.242 86.3716L394.699 86.739L395.216 87.0418L395.924 87.3854L396.656 87.6865L397.406 87.9246L398.198 88.1134L399.013 88.2393L399.829 88.3244L400.643 88.3652L401.472 88.3601L402.287 88.2716L403.099 88.1611L403.91 87.9655L404.696 87.7477L405.464 87.4416L406.187 87.0928L406.886 86.6982L407.543 86.2236L408.157 85.698L408.731 85.1367L409.234 84.4818L409.694 83.7895L409.863 83.4884L410.053 83.1584L410.263 82.8148L410.45 82.4661L410.636 82.0987L410.827 81.7075L411.013 81.318L411.18 80.9284L411.325 80.5372L411.446 80.1256L411.549 79.7173L411.634 79.3023L411.67 78.911L411.684 78.5028L411.661 78.1133L411.568 77.722L411.455 77.3325L411.279 76.9668L411.064 76.6232L410.779 76.2745L410.609 76.1435L410.416 76.0193L410.198 75.9122L409.942 75.805L409.662 75.7166L409.363 75.6519L409.062 75.6094L408.739 75.5686L408.418 75.5499L408.12 75.572L407.804 75.5907L407.501 75.6383L407.226 75.7268L406.97 75.8135L406.736 75.9445L406.523 76.0925L406.354 76.2694L406.23 76.465L406.144 76.7014L406.109 76.9617L406.117 77.6999L406.144 78.3922L406.155 79.0607L406.074 79.753L405.87 80.4913L405.66 80.9471L405.433 81.3554L405.18 81.7687L404.887 82.1412L404.546 82.4882L404.212 82.791L403.848 83.0513L403.466 83.3115L403.062 83.5105L402.637 83.6636L402.214 83.7946L401.784 83.8831L401.337 83.9239L400.91 83.9069L400.457 83.8644L400.028 83.7572L399.6 83.6092L399.191 83.3898L398.781 83.1346L398.392 82.8097L398.174 82.5954L397.978 82.359L397.829 82.1208L397.676 81.8623L397.563 81.5782L397.499 81.318L397.43 81.0169L397.383 80.7379L397.359 80.4317L397.377 80.1528L397.396 79.85L397.434 79.5438L397.471 79.2427L397.555 78.9587L397.633 78.6576L397.741 78.3735L397.843 78.0946L397.969 77.8343L398.096 77.5741L398.239 77.3325L398.556 76.8596L398.892 76.4225L399.251 76.0313L399.609 75.6417L400.015 75.2947L400.438 74.9919L400.863 74.6858L401.306 74.4255L401.775 74.184L402.241 73.9662L402.731 73.7944L403.225 73.6175L403.732 73.4866L404.244 73.3522L404.756 73.245L405.293 73.177L405.824 73.1106L406.359 73.0647L406.895 73.0409H407.426L420.773 72.995H421.048L421.309 73.0358L421.565 73.1021L421.803 73.1906L421.993 73.3148L422.189 73.4457L422.32 73.6158L422.426 73.8114L422.474 74.0309L422.477 74.269L422.418 74.5276L422.291 74.8116L416.16 86.3019L416.041 86.5808L415.955 86.8836L415.938 87.166L415.984 87.4501L416.073 87.6882L416.244 87.9008L416.482 88.0709L416.784 88.1832L417.018 88.2257L417.257 88.2682L417.513 88.2852L417.791 88.3091H418.047L418.345 88.304L418.625 88.2869L418.9 88.2393L419.18 88.1934L419.454 88.1288L419.734 88.0403L419.99 87.9553L420.224 87.8447L420.456 87.7154L420.671 87.5623L420.862 87.3888L421.005 87.1949L421.155 86.9755L433.561 64.342L433.817 63.9508L434.027 63.6905L434.259 63.5374L434.576 63.4728L435.028 63.4456L452.819 63.3894L453.14 63.4966L453.49 63.8164L453.638 64.1651L453.606 64.6856L453.48 65.1823L453.294 65.6143L453.065 65.9851L452.792 66.2879L452.492 66.5295L452.152 66.7234L451.77 66.8765L451.388 66.9649L450.96 67.0313L450.513 67.0721L450.061 67.0772L449.614 67.0534L449.143 67.0364L448.672 66.9938L448.201 66.9513L447.727 66.8867L447.28 66.8493L446.852 66.8254L446.422 66.8084H446.018L445.291 66.8544L444.523 66.9428L443.73 67.0534L442.92 67.2065L442.067 67.3834L441.214 67.5841L440.339 67.8256L439.469 68.0859L438.592 68.3921L437.744 68.7153L436.891 69.0691L436.086 69.4603L435.275 69.8549L434.511 70.3108L433.789 70.765L433.114 71.2668L432.476 71.7873L431.906 72.3316L431.399 72.898L430.956 73.5053L430.56 74.1329L430.159 74.8065L429.784 75.4988L429.405 76.2133L429.098 76.9753L428.786 77.7323L428.539 78.4892L428.334 79.2461L428.194 80.0286L428.115 80.76L428.1 81.5L428.175 82.211L428.334 82.9084L428.6 83.5531L428.948 84.1569L429.424 84.7183L430.011 85.2388L430.7 85.6895L431.539 86.0757L432.503 86.3988L432.974 86.5009L433.426 86.591L433.876 86.6506L434.301 86.6931H435.117L435.521 86.6693L435.927 86.6472L436.314 86.5996L436.719 86.5349L437.101 86.4703L437.488 86.4005L437.87 86.3359L438.274 86.2474L438.68 86.1811L439.066 86.1165L439.491 86.0484L439.897 86.0059L440.323 85.9583L440.772 85.9362L441.159 85.9583L441.396 86.0654L441.504 86.3682L441.555 86.887L441.582 87.3191L441.671 87.598L441.819 87.7937L442.104 87.9229L442.51 88.0301L442.766 88.0947L443.022 88.1373L443.324 88.156L443.623 88.2019L443.921 88.1985H444.564L444.885 88.1747L445.207 88.11L445.523 88.0624L445.803 87.974L446.101 87.8685L446.357 87.7375L446.591 87.5844L446.801 87.4143L446.968 87.217L447.62 86.2372L448.207 85.1792L448.729 84.0906L449.292 83.0513L449.544 82.6192L449.819 82.2059L450.112 81.7925L450.406 81.4013L450.747 80.988L451.057 80.6222L451.415 80.231L451.774 79.884L452.139 79.5166L452.521 79.1679L452.898 78.8379L453.299 78.4943L453.703 78.1881L454.104 77.8632L454.529 77.557L454.933 77.2781L455.358 76.994L455.781 76.7099L456.206 76.4514L456.629 76.186L457.118 75.902L457.649 75.6417L458.181 75.4053L458.758 75.1876L459.331 74.9681L459.909 74.7691L460.483 74.5514L461.056 74.3558L461.632 74.138L462.182 73.9186L462.714 73.6771L463.226 73.4406L463.715 73.1753L464.181 72.8929L464.586 72.5901L464.964 72.2431L465.28 71.8757L465.554 71.4624L465.764 71.0303L465.909 70.5285L465.966 70.0318L465.896 69.6831L465.657 69.4501L465.206 69.2324L464.865 69.1473L464.456 69.0844L464.009 69.0657H463.497L462.985 69.1116L462.448 69.1575L461.912 69.246L461.382 69.3344L460.887 69.4229L460.443 69.5521L460.039 69.6593L459.718 69.7716L457.165 70.8211L456.844 70.8381L456.564 70.6255L456.387 70.3244L456.448 70.0216L459.444 64.6669L459.694 64.3182L460.077 63.9695L460.501 63.6446L460.948 63.4268L461.371 63.3384L482.926 63.2636L483.206 63.3061L483.462 63.3707L483.677 63.4813L483.873 63.631L484.027 63.8249L484.156 64.0392L484.269 64.2773L484.334 64.5172L484.399 64.7723L484.446 65.0564L484.469 65.3167L484.497 65.6007V65.8372L484.501 66.0974L484.506 66.31L484.489 66.7234L484.428 67.1367L484.371 67.5229L484.286 67.9141L484.167 68.3036L484.04 68.6744L483.895 69.0418L483.728 69.4093L483.54 69.758L483.351 70.1016L483.141 70.4486L482.913 70.7752L482.681 71.0813L482.404 71.3824L482.154 71.6852L481.879 71.9676L481.58 72.2516L481.287 72.5119L480.966 72.7534L480.649 72.9916L480.224 73.2739L479.782 73.5563L479.335 73.8165L478.888 74.036L478.423 74.2537L477.976 74.4238L477.505 74.6024L477.015 74.7368L476.544 74.8661L476.055 74.9545L475.586 75.043L475.096 75.0889L474.601 75.1076L474.108 75.1127H473.596L473.102 75.0719L472.612 75.0107L472.095 74.9222L471.607 74.7963L471.09 74.667L470.507 74.4527L469.93 74.1516L469.325 73.8302L468.746 73.507L468.141 73.2076L467.562 72.9711L466.962 72.864L466.558 72.8419L466.278 72.8878L466.152 73.0188L466.09 73.2552L466.114 73.6465L466.254 74.3371L466.496 75.094L466.808 75.8509L467.134 76.562L467.441 77.2117L467.772 77.9228L468.122 78.6151L468.472 79.3074L468.867 79.9997L469.26 80.692L469.673 81.3605L470.111 82.0103L470.568 82.6566L471.043 83.2605L471.541 83.8644L472.063 84.4257L472.626 84.9411L473.209 85.4395L473.815 85.9124L474.439 86.3206L475.104 86.7118L475.812 87.0316L476.526 87.3106L477.293 87.5249L478.092 87.695L478.586 87.7562L479.074 87.8447L479.591 87.9059L480.081 87.9706L480.552 88.0114L481.046 88.0539H481.515L481.986 88.0488L482.433 88.008L482.861 87.9382L483.29 87.8311L483.714 87.7001L484.097 87.5249L484.479 87.3293L484.842 87.069L485.176 86.7629L485.475 86.3954L485.768 86.0042L486.043 85.5279L486.272 85.0074L486.417 84.4631L486.366 84.0957L486.086 83.8167L485.569 83.6228L485.228 83.5582L484.842 83.5395L484.412 83.5208L483.919 83.5429L483.43 83.5667L482.894 83.5905L482.339 83.6126L481.763 83.6364H481.184L480.606 83.6194L480.006 83.5752L479.429 83.5156L478.849 83.3864L478.315 83.2367L477.779 83.0241L477.263 82.74L476.805 82.3964L476.377 82.0103L475.985 81.5136L475.637 80.9522L475.413 80.3246L475.449 79.8925L475.748 79.5217L476.213 79.3261L476.94 79.173L477.645 79.0369L478.347 78.8838L479.028 78.7307L479.712 78.5368L480.393 78.3174L481.072 78.0537L481.734 77.7476L482.159 77.5094L482.606 77.2032L483.071 76.9005L483.537 76.6181L484.003 76.3578L484.497 76.1588L484.985 76.0517H485.456L493.017 77.1063L493.404 77.1658L493.66 77.2543L493.832 77.3614L493.879 77.5145L493.838 77.7527L493.693 78.0759L493.464 78.4892L488.894 86.3631L488.708 86.7714L488.691 87.0554L488.824 87.3752L488.866 87.4398L489.081 87.746L489.426 87.8719L490.069 87.8957L492.463 87.8872L492.85 87.8396L493.232 87.7103L493.595 87.5334L493.93 87.2953L494.228 87.0367L494.503 86.7305L494.755 86.4056L494.941 86.0791L507.439 63.7041L507.929 63.2448L508.521 62.9438L508.819 62.8553L509.099 62.789L509.372 62.743L509.671 62.6784L509.95 62.6138L510.225 62.5474L510.481 62.4607L510.737 62.3484L510.971 62.2191L511.186 62.066L511.377 61.8704L511.544 61.6323L511.689 61.355L511.815 61.025L511.894 60.6168L511.805 60.3565L511.525 60.0963L510.925 59.8581L510.217 59.734L509.573 59.7153L442.179 60.4807H441.238L440.25 60.4637L439.267 60.4025L438.285 60.3004L437.319 60.1507L436.952 60.0453L436.761 59.8922L436.691 59.6319L436.708 59.1999L436.91 58.2694L437.114 57.3781L437.143 56.4255L437.077 56.1245L437.009 55.8404L436.901 55.5852L436.77 55.325L436.616 55.0647L436.439 54.8521L436.268 54.6106L436.053 54.4201L435.833 54.2244L435.596 54.0288L435.357 53.8808L435.101 53.7277L434.823 53.5781L434.567 53.4726L434.283 53.3654L433.984 53.277L433.704 53.2123L433.426 53.1698L433.128 53.129L432.848 53.1324L402.738 52.9283ZM255.974 85.2115L255.612 85.2149L255.249 85.1503L254.904 85.0619L254.558 84.9377L254.261 84.7846L253.957 84.589L253.677 84.3508L253.416 84.0736L253.198 83.7708L253.068 83.4272L252.998 82.8829L253.053 82.4287L253.198 82.0613L253.454 81.7381L253.795 81.4949L254.177 81.2992L254.624 81.1887L255.093 81.124H255.583L256.078 81.1649L256.572 81.272L257.018 81.4438L257.451 81.6582L257.819 81.9184L258.121 82.2195L258.318 82.5869L258.449 82.9781L258.458 83.4085L258.338 83.8831L258.062 84.4036L257.895 84.6213L257.639 84.7982L256.999 85.0346L256.339 85.1877L255.974 85.2115ZM448.638 71.3229L449.114 71.43L449.399 71.8383L449.459 71.9489L449.595 72.2942L449.534 72.6173L449.305 73.0732L445.637 79.3856L445.448 79.6238L445.155 79.884L444.749 80.1426L444.237 80.4079L443.687 80.692L443.049 80.9522L442.345 81.2125L441.623 81.454L440.873 81.6718L440.108 81.8487L439.341 82.0018L438.573 82.0936L437.822 82.1599H437.118L436.452 82.1225L435.852 81.9916L435.316 81.801L434.864 81.5408L434.496 81.1751L434.235 80.743L434.011 79.9197L433.96 79.1407L434.057 78.365L434.305 77.603L434.7 76.8886L435.204 76.1945L435.818 75.5209L436.517 74.8899L437.276 74.3047L438.124 73.7383L439.018 73.2365L439.933 72.7806L440.869 72.3673L441.804 71.9965L442.742 71.6903L443.658 71.4488L444.535 71.2719L445.346 71.1596L446.096 71.1137L446.756 71.1375L448.638 71.3229ZM323.693 71.6988L323.949 71.6104L324.222 71.5219L324.523 71.4113L324.862 71.3229L325.225 71.2582L325.613 71.1698L325.993 71.1035L326.399 71.0388L326.781 70.9742L327.191 70.9283L327.597 70.9044L327.979 70.8806L328.364 70.8585L328.706 70.8806L329.05 70.8993L329.349 70.9419L329.627 71.0065L329.866 71.0915L330.057 71.1783L330.466 71.5219L330.603 72.0186L330.522 72.6275L330.318 73.2314L330.047 73.8165L329.734 74.4017L329.419 74.946L329.107 75.4903L328.835 76.0091L328.542 76.5296L328.248 77.0501L327.955 77.5468L327.614 78.0486L327.279 78.5453L326.902 79.0012L326.502 79.4367L326.078 79.8279L325.804 80.0218L325.505 80.2174L325.188 80.413L324.847 80.5661L324.485 80.743L324.103 80.8723L323.697 81.0033L323.293 81.1138L322.887 81.2023L322.458 81.2907L322.034 81.3554L321.607 81.403L321.201 81.4438H320.771L320.367 81.4489L319.98 81.4251L319.592 81.3843L319.229 81.3231L318.884 81.2346L318.569 81.1274L318.069 80.891L317.702 80.6359L317.404 80.3331L317.226 79.9861L317.091 79.6187L317.068 79.2274L317.105 78.8192L317.185 78.4058L317.329 77.9738L317.516 77.5383L317.748 77.1063L318.001 76.6742L318.27 76.2371L318.569 75.8458L318.862 75.4563L319.156 75.0889L319.449 74.7419L319.722 74.4391L319.98 74.1567L320.189 73.9373L320.763 73.4168L321.419 72.9405L322.119 72.5255L322.822 72.1309L323.502 71.7822L323.693 71.6988ZM500.377 62.971L500.764 63.056L501.108 63.3333L501.284 63.7007L501.313 64.1787L501.252 64.4168L501.149 64.723L501.001 65.0887L500.813 65.497L500.586 65.9766L500.334 66.4733L500.064 67.0177L499.771 67.5603L499.454 68.1046L499.141 68.6421L498.829 69.1864L498.514 69.6831L498.196 70.1611L497.903 70.5932L497.65 70.9657L497.4 71.2668L497.209 71.5083L497.041 71.6614L496.767 71.8332L496.426 71.9863L496.021 72.1173L495.55 72.2465L495.061 72.3588L494.549 72.4694L494.037 72.5578L493.543 72.6003L493.053 72.6463H492.625L492.243 72.6514L491.941 72.5867L489.346 71.9863L489.09 71.9029L488.959 71.7073L488.931 71.3841L488.986 70.7973L489.834 64.5835L489.914 64.1089L489.992 63.7381L490.078 63.4592L490.202 63.2636L490.351 63.1343L490.542 63.0458L490.816 62.9982H491.139L500.377 62.971ZM400.409 60.2494L400.11 60.1643L399.849 59.8411L399.803 59.4958L399.991 58.9991L400.199 58.6692L400.433 58.3681L400.706 58.0891L401.001 57.8663L401.345 57.6707L401.682 57.5006L402.045 57.3475L402.43 57.2352L402.831 57.1468L403.241 57.0617L403.647 57.0158L404.072 56.9699L404.481 56.946H404.904L405.31 56.9239L405.738 56.9409H406.508L406.893 56.9596H407.238L429.478 57.1229L429.78 57.1655L430.06 57.2947L430.299 57.4904L430.512 57.7506L430.644 58.0279L430.736 58.3307L430.784 58.6317L430.722 58.9379L430.555 59.3053L430.302 59.6319L429.961 59.9143L429.581 60.0912L429.175 60.1558L400.409 60.2494ZM386.043 58.3119L386.429 58.2881L386.811 58.2422L387.174 58.1912L387.537 58.1027L387.901 57.9922L388.264 57.8612L388.605 57.7081L388.945 57.5312L389.286 57.356L389.578 57.1417L389.876 56.9239L390.175 56.6637L390.444 56.4085L390.7 56.1483L390.934 55.8455L391.163 55.5444L391.354 55.2178L391.54 54.8793L391.707 54.5357L391.833 54.1921L391.952 53.658L391.884 53.2719L391.604 52.9793L391.11 52.7701L390.659 52.668L390.25 52.6119L389.885 52.5762L389.545 52.5983L389.225 52.6459L388.926 52.7327L388.651 52.8449L388.372 52.9742L388.119 53.1273L387.887 53.3008L387.653 53.476L387.421 53.6665L387.188 53.8621L386.956 54.0799L386.722 54.2942L386.466 54.4898L386.215 54.6888L385.936 54.8844L385.642 55.0545L385.32 55.2331L384.706 55.427L384.086 55.5206L383.421 55.5291L382.781 55.4968L382.138 55.4407L381.495 55.427L381.15 55.3862L380.937 55.2416L380.765 54.9218L380.582 54.3503L380.447 53.7975L380.251 53.3093L379.818 52.9742L379.432 52.8262L379.001 52.731L378.55 52.6697L378.102 52.6561L377.651 52.6799L377.203 52.748L376.78 52.8602L376.397 53.0371L375.843 53.4505L375.466 54.0084L375.261 54.4592L375.07 54.9082L374.925 55.359L374.828 55.8098L374.809 56.2792L374.901 56.7895L375.055 57.2131L375.316 57.5533L375.684 57.8033L376.35 58.0908L377.124 58.3187L377.827 58.4157L386.043 58.3119Z" fill="white"/>
<path d="M8.70108 95.1335L7.90952 95.142L7.15889 95.1335L6.49869 95.1369L5.89648 95.1471L5.34204 95.1505L4.8729 95.1794L4.42424 95.2066L4.03869 95.2355L3.6975 95.2577L3.40066 95.2815L3.14476 95.3274L2.90593 95.375L2.6961 95.4397L2.5255 95.5077L2.37538 95.5928L2.24913 95.6574L2.14166 95.7697L2.0393 95.8751L1.95571 95.9823L1.867 96.1133L0.212215 98.6903L0.106445 99.0339L0.200273 99.3741L0.437402 99.6292L0.778594 99.7075L117.236 99.7415L117.664 99.7126L117.963 99.5595L118.236 99.2567L118.568 98.7192L132.576 74.0258L132.702 73.6635L132.673 73.3658L132.503 73.1294L132.264 72.9627L131.943 72.8419L131.599 72.7568L131.276 72.7398L97.7404 72.7211L97.1859 72.7296L96.7799 72.7994L96.524 72.9303L96.3142 73.143L96.1044 73.5104L93.0575 79.6884L92.3683 80.9795L91.5716 82.2433L90.7101 83.468L89.7599 84.6757L88.7261 85.8018L87.6257 86.9024L86.4844 87.9383L85.2783 88.9316L84.0057 89.8417L82.7108 90.7092L81.3563 91.5189L79.9728 92.2384L78.5466 92.8933L77.1204 93.4699L75.6533 93.9768L74.181 94.3987L72.6917 94.715L71.2144 94.9702L69.7182 95.1148L68.246 95.1556L8.70108 95.1335ZM162.876 95.9823L161.32 95.9585L159.745 95.8938L158.171 95.8054L156.591 95.7595L155.039 95.7356L153.466 95.7595L151.867 95.7765L150.27 95.7969L148.696 95.8139H147.097L145.504 95.8343L143.905 95.8292H142.331L140.734 95.8054L139.136 95.7833L137.561 95.7595L135.964 95.7169L135.606 95.6999L135.2 95.6812L134.753 95.6438L134.282 95.6285L133.77 95.5928L133.262 95.5774L132.726 95.5638L132.194 95.5468L131.665 95.5553L131.133 95.5604L130.601 95.5877L130.089 95.6387L129.577 95.6897L129.111 95.7782L128.664 95.8887L128.24 96.0248L127.881 96.2L127.545 96.3956L127.271 96.6338L127.037 96.911L126.894 97.1713L126.791 97.4503L126.772 97.7241L126.795 97.9622L126.883 98.1936L127.037 98.3841L127.228 98.51L127.508 98.612L127.825 98.6529L491.246 98.4658L491.712 98.3977L492.116 98.18L492.474 97.8959L492.788 97.5523L492.974 97.2546V96.9536L492.778 96.53L492.536 96.0843L492.297 95.8343L492 95.7322L491.553 95.7135L488.552 95.7493L485.55 95.7646L482.547 95.7816L479.548 95.7731L476.544 95.768L473.543 95.7646L470.543 95.7595L467.543 95.7322L464.538 95.7033L461.539 95.6761L458.534 95.6472L455.533 95.62L452.529 95.5928L449.529 95.5638L446.546 95.5366L443.547 95.5128L440.565 95.5043L437.566 95.4754L434.584 95.472L431.602 95.4856L162.876 95.9823ZM30.7063 47.6943L30.4504 47.6994L30.1945 47.7402L29.9369 47.81L29.6622 47.9172L29.4063 48.0277L29.1504 48.1587L28.8741 48.3118L28.6421 48.4887L28.3862 48.6843L28.1525 48.8969L27.9426 49.1147L27.7328 49.3528L27.5656 49.5892L27.3933 49.8223L27.2483 50.0808L27.1238 50.336L27.0385 50.6166L26.96 50.8752L26.9429 51.1507L26.9225 51.4059L27.0112 51.8329L27.337 51.9349L27.8488 52.0557L28.3674 52.1339L87.9072 52.3057L88.5316 52.321L89.1287 52.3755L89.7531 52.4775L90.3945 52.617L91.0155 52.8041L91.6211 53.0082L92.2403 53.2549L92.846 53.5236L93.4226 53.84L93.9855 54.1972L94.528 54.5732L95.045 54.9678L95.5431 55.3913L96.0173 55.8557L96.4268 56.3388L96.8191 56.8253L97.1689 57.3747L97.4759 57.9275L97.737 58.4991L97.9366 59.074L99.0557 62.8553L99.1665 63.2176L99.3388 63.4269L99.5947 63.5102L100.025 63.5476L137.326 63.7092L137.735 63.7058L138.052 63.6582L138.308 63.5476L138.518 63.3571L138.731 63.0731L138.984 62.6699L153.053 37.9901L153.196 37.587L153.15 37.2247L152.911 37.0154L152.396 36.8283L151.538 36.6667L150.685 36.6157L117.489 36.6582L117.106 36.6803L116.828 36.8334L116.47 37.16L111.76 42.161L110.907 42.8584L109.96 43.486L109.494 43.8535L109.007 44.2005L108.498 44.5066L107.968 44.8128L107.413 45.0935L106.859 45.3572L106.286 45.6225L105.712 45.8828L105.115 46.1056L104.496 46.3471L103.899 46.5461L103.285 46.7469L102.665 46.9238L102.027 47.0803L101.408 47.2385L100.765 47.3745L100.151 47.4902L99.5299 47.5787L98.9107 47.6518L98.2914 47.7028L97.6909 47.7317L97.0938 47.7351L30.7063 47.6943ZM59.5507 0L59.1464 0.005103L58.522 0.032319L57.7765 0.066339L56.9849 0.139482L56.2804 0.250047L55.7259 0.40824L55.453 0.603855L53.8153 3.31185L53.5235 3.86977L53.4621 4.23209L53.5986 4.57059L53.7692 4.82573L54.0302 4.95161L54.4601 5.01114L55.163 5.02135L106.151 5.1064L106.536 5.0996L106.946 5.11831L107.33 5.13192L107.734 5.15063L108.143 5.16594L108.549 5.20166L108.937 5.23908L109.363 5.30031L109.769 5.33774L110.175 5.39727L110.562 5.47722L110.972 5.56057L111.378 5.63881L111.763 5.74087L112.169 5.84293L112.562 5.94499L112.942 6.06576L113.311 6.21035L113.674 6.35834L114.043 6.50292L114.856 6.89755L115.634 7.37553L116.39 7.92496L117.122 8.5101L117.797 9.16498L118.446 9.86239L119.031 10.6006L119.594 11.4035L120.099 12.2302L120.559 13.0756L120.974 13.9431L121.327 14.8599L121.617 15.77L121.863 16.7072L122.05 17.6428L122.166 18.5783L122.223 19.536L122.188 20.4562L122.115 21.3748L121.956 22.2916L120.984 26.7601L120.923 27.1445L121.011 27.3776L121.291 27.4847L121.827 27.4984L157.761 27.8283L158.191 27.8232L158.507 27.7552L158.763 27.6004L158.996 27.3402L159.249 26.937L173.574 2.2164L173.741 1.88981L173.825 1.55131L173.819 1.23152L173.727 0.933849L173.512 0.724626L173.168 0.598752L171.585 0.488187L169.959 0.445662L168.374 0.421848L59.5507 0Z" fill="#00AEEF"/>
</g>
<defs>
<clipPath id="clip0_258_3835">
<rect width="512" height="136" fill="white"/>
</clipPath>
</defs>
</svg>
